<svg xmlns="http://www.w3.org/2000/svg" width="52" height="54" viewBox="0 0 52 54" fill="none">
<path fill-rule="evenodd" clip-rule="evenodd" d="M51.9433 51.4801L48.8025 37.5351L48.7997 37.5228L46.6563 28.0059L46.6543 27.9973L43.3719 13.4235C43.6878 12.7519 43.8653 12.0029 43.8653 11.2128C43.8653 8.3385 41.5269 6 38.6525 6C33.9778 6 29.4399 6.91672 25.1653 8.72477C21.0392 10.4699 17.3347 12.9672 14.1544 16.1474C10.9741 19.3277 8.47674 23.0323 6.7316 27.1584C4.92356 31.4331 4.00684 35.9709 4.00684 40.6457C4.00684 43.5201 6.34524 45.8586 9.21974 45.8586C10.016 45.8586 10.7707 45.6785 11.4464 45.358L18.0635 46.8514V50.9471C18.0635 52.6305 19.4331 54.0001 21.1165 54.0001C22.8 54.0001 24.1695 52.6305 24.1695 50.9471V49.7579C24.1695 49.4769 24.3981 49.2483 24.6792 49.2483C25.2491 49.2483 25.7889 49.047 26.2126 48.6905L49.4804 53.9419C50.1735 54.0982 50.8875 53.8918 51.39 53.3895C51.8926 52.887 52.0994 52.1733 51.9433 51.4801ZM46.8419 37.3644C46.0734 37.8951 45.1591 38.1835 44.2152 38.1835C41.6645 38.1835 39.5893 36.1084 39.5893 33.5577C39.5893 31.0071 41.6645 28.9318 44.2152 28.9318C44.4646 28.9318 44.7122 28.9523 44.9561 28.9914L46.8419 37.3644ZM13.3202 43.8586C13.9527 43.053 14.3534 42.058 14.4211 40.9736H15.6753C16.9921 40.9736 18.0634 42.0449 18.0634 43.3617V44.9291L13.3202 43.8586ZM27.0638 45.984C27.0638 43.4333 29.139 41.3581 31.6897 41.3581C34.2404 41.3581 36.3155 43.4333 36.3155 45.984C36.3155 47.0258 35.9708 48.0179 35.3376 48.8277L27.1731 46.9851C27.101 46.6581 27.0638 46.3232 27.0638 45.984ZM17.3801 25.5466C14.2253 29.979 12.5576 35.2002 12.5576 40.6456C12.5576 42.4861 11.0602 43.9834 9.21974 43.9834C7.37926 43.9834 5.88191 42.4861 5.88191 40.6456C5.88191 36.2231 6.74885 31.9311 8.45855 27.8888C10.1091 23.9862 12.4716 20.482 15.4802 17.4733C18.4889 14.4647 21.9931 12.1022 25.8957 10.4517C29.9379 8.74202 34.2301 7.87508 38.6525 7.87508C40.493 7.87508 41.9904 9.37242 41.9904 11.2129C41.9904 13.0534 40.493 14.5507 38.6525 14.5507C33.2037 14.5507 27.9798 16.2203 23.5458 19.3789C22.1419 20.5747 19.3227 23.1139 17.9157 24.8273C17.7009 25.0889 17.519 25.3313 17.3801 25.5466ZM49.8932 52.1127C49.9753 52.1315 50.0315 52.096 50.0644 52.0632C50.0973 52.0305 50.1325 51.9742 50.1139 51.8921L47.2762 39.2927C46.3413 39.7919 45.2916 40.0587 44.2152 40.0587C40.6306 40.0587 37.7142 37.1424 37.7142 33.5578C37.7142 29.9731 40.6306 27.0568 44.2152 27.0568C44.3178 27.0568 44.4201 27.0601 44.5222 27.0649L41.8739 15.3067C40.9864 16.0065 39.8678 16.4258 38.6524 16.4258C33.5958 16.4259 28.7482 17.9751 24.6336 20.9061C23.0274 22.3601 19.6336 25.5412 18.9078 26.634C16.2803 30.3254 14.7654 34.6065 14.4821 39.0985H15.6754C18.0262 39.0985 19.9386 41.011 19.9386 43.3617V50.947C19.9386 51.5965 20.4671 52.1249 21.1165 52.1249C21.766 52.1249 22.2945 51.5965 22.2945 50.947V49.7578C22.2945 48.4428 23.3643 47.3731 24.6792 47.3731C24.8475 47.3731 25.0037 47.2907 25.0994 47.152C25.1454 47.0798 25.2008 47.0159 25.2628 46.9601C25.2143 46.6384 25.1887 46.3126 25.1887 45.9839C25.1887 42.3993 28.105 39.483 31.6897 39.483C35.2744 39.483 38.1906 42.3993 38.1906 45.9839C38.1906 47.1559 37.881 48.2836 37.301 49.2708L49.8932 52.1127Z" fill="#509E2F"/>
<path fill-rule="evenodd" clip-rule="evenodd" d="M43.3719 13.4235C43.6878 12.7519 43.8653 12.0029 43.8653 11.2128C43.8653 8.3385 41.5269 6 38.6525 6C33.9778 6 29.4399 6.91672 25.1653 8.72477C21.0392 10.4699 17.3347 12.9672 14.1544 16.1474C10.9741 19.3277 8.47674 23.0323 6.7316 27.1584C4.92356 31.4331 4.00684 35.9709 4.00684 40.6457C4.00684 43.5201 6.34524 45.8586 9.21974 45.8586C10.016 45.8586 10.7707 45.6785 11.4464 45.358L13.3202 43.8586C13.9527 43.053 14.3534 42.058 14.4211 40.9736L14.4821 39.0985C14.7654 34.6065 16.2803 30.3254 18.9078 26.634C19.6336 25.5412 23.0274 22.3601 24.6336 20.9061C28.7482 17.9751 33.5958 16.4259 38.6524 16.4258C39.8678 16.4258 40.9864 16.0065 41.8739 15.3067L43.3719 13.4235ZM12.5576 40.6456C12.5576 35.2002 14.2253 29.979 17.3801 25.5466C17.5681 25.2921 17.7462 25.0529 17.9157 24.8273C20.1085 21.9098 20.8799 21.2779 23.5458 19.3789C27.9798 16.2203 33.2037 14.5507 38.6525 14.5507C40.493 14.5507 41.9904 13.0534 41.9904 11.2129C41.9904 9.37242 40.493 7.87508 38.6525 7.87508C34.2301 7.87508 29.9379 8.74202 25.8957 10.4517C21.9931 12.1022 18.4889 14.4647 15.4802 17.4733C12.4716 20.482 10.1091 23.9862 8.45855 27.8888C6.74885 31.9311 5.88191 36.2231 5.88191 40.6456C5.88191 42.4861 7.37926 43.9834 9.21974 43.9834C11.0602 43.9834 12.5576 42.4861 12.5576 40.6456Z" fill="#509E2F"/>
<path d="M12.5576 40.6456C12.5576 35.2002 14.2253 29.979 17.3801 25.5466C17.519 25.3313 17.7009 25.0889 17.9157 24.8273C20.1085 21.9098 20.8799 21.2779 23.5458 19.3789C27.9798 16.2203 33.2037 14.5507 38.6525 14.5507C40.493 14.5507 41.9904 13.0534 41.9904 11.2129C41.9904 9.37242 40.493 7.87508 38.6525 7.87508C34.2301 7.87508 29.9379 8.74202 25.8957 10.4517C21.9931 12.1022 18.4889 14.4647 15.4802 17.4733C12.4716 20.482 10.1091 23.9862 8.45855 27.8888C6.74885 31.9311 5.88191 36.2231 5.88191 40.6456C5.88191 42.4861 7.37926 43.9834 9.21974 43.9834C11.0602 43.9834 12.5576 42.4861 12.5576 40.6456Z" fill="#509E2F"/>
<path d="M49.8932 52.1127C49.9753 52.1315 50.0315 52.096 50.0644 52.0632C50.0973 52.0305 50.1325 51.9742 50.1139 51.8921L47.2762 39.2927C46.3413 39.7919 45.2916 40.0587 44.2152 40.0587C40.6306 40.0587 37.7142 37.1424 37.7142 33.5578C37.7142 29.9731 40.6306 27.0568 44.2152 27.0568C44.3178 27.0568 44.4201 27.0601 44.5222 27.0649L41.8739 15.3067C40.9864 16.0065 39.8678 16.4258 38.6524 16.4258C33.5958 16.4259 28.7482 17.9751 24.6336 20.9061C23.0274 22.3601 19.6336 25.5412 18.9078 26.634C16.2803 30.3254 14.7654 34.6065 14.4821 39.0985H15.6754C18.0262 39.0985 19.9386 41.011 19.9386 43.3617V50.947C19.9386 51.5965 20.4671 52.1249 21.1165 52.1249C21.766 52.1249 22.2945 51.5965 22.2945 50.947V49.7578C22.2945 48.4428 23.3643 47.3731 24.6792 47.3731C24.8475 47.3731 25.0037 47.2907 25.0994 47.152C25.1454 47.0798 25.2008 47.0159 25.2628 46.9601C25.2143 46.6384 25.1887 46.3126 25.1887 45.9839C25.1887 42.3993 28.105 39.483 31.6897 39.483C35.2744 39.483 38.1906 42.3993 38.1906 45.9839C38.1906 47.1559 37.881 48.2836 37.301 49.2708L49.8932 52.1127Z" fill="#509E2F"/>
<path d="M46.8419 37.3644C46.0734 37.8951 45.1591 38.1835 44.2152 38.1835C41.6645 38.1835 39.5893 36.1084 39.5893 33.5577C39.5893 31.0071 41.6645 28.9318 44.2152 28.9318C44.4646 28.9318 44.7122 28.9523 44.9561 28.9914L46.8419 37.3644Z" fill="#509E2F"/>
<path d="M27.0638 45.984C27.0638 43.4333 29.139 41.3581 31.6897 41.3581C34.2404 41.3581 36.3155 43.4333 36.3155 45.984C36.3155 47.0258 35.9708 48.0179 35.3376 48.8277L27.1731 46.9851C27.101 46.6581 27.0638 46.3232 27.0638 45.984Z" fill="#509E2F"/>
<path d="M14.4211 40.9736C14.3534 42.058 13.9527 43.053 13.3202 43.8586L18.0634 44.9291V43.3617C18.0634 42.0449 16.9921 40.9736 15.6753 40.9736H14.4211Z" fill="#509E2F"/>
<path d="M23.8449 17.3424C20.2603 17.3424 17.344 20.2587 17.344 23.8433C17.344 27.4279 20.2602 30.3442 23.8449 30.3442C27.4295 30.3442 30.3458 27.4279 30.3458 23.8433C30.3458 20.2587 27.4294 17.3424 23.8449 17.3424V17.3424ZM23.8449 28.4691C21.2942 28.4691 19.2191 26.394 19.2191 23.8433C19.2191 21.2926 21.2942 19.2175 23.8449 19.2175C26.3956 19.2175 28.4708 21.2926 28.4708 23.8433C28.4708 26.394 26.3956 28.4691 23.8449 28.4691Z" fill="#212721"/>
<path fill-rule="evenodd" clip-rule="evenodd" d="M47.943 45.4801L44.8023 31.5351L44.7995 31.5228L42.6561 22.0059L42.6541 21.9973L39.3717 7.42352C39.6875 6.75187 39.8651 6.00287 39.8651 5.21281C39.8651 2.3385 37.5267 0 34.6523 0C29.9775 0 25.4397 0.916725 21.1651 2.72477C17.0389 4.4699 13.3345 6.96722 10.1541 10.1474C6.97381 13.3277 4.47649 17.0323 2.73136 21.1584C0.923317 25.4331 0.0065918 29.9709 0.0065918 34.6457C0.0065918 37.5201 2.345 39.8586 5.21949 39.8586C6.01574 39.8586 6.77046 39.6785 7.44615 39.358L14.0633 40.8514V44.9471C14.0633 46.6305 15.4328 48.0001 17.1163 48.0001C18.7997 48.0001 20.1693 46.6305 20.1693 44.9471V43.7579C20.1693 43.4769 20.3979 43.2483 20.6789 43.2483C21.2489 43.2483 21.7886 43.047 22.2124 42.6905L45.4801 47.9419C46.1732 48.0982 46.8873 47.8918 47.3898 47.3895C47.8924 46.887 48.0991 46.1733 47.943 45.4801ZM42.8417 31.3644C42.0732 31.8951 41.1588 32.1835 40.215 32.1835C37.6642 32.1835 35.5891 30.1084 35.5891 27.5577C35.5891 25.0071 37.6642 22.9318 40.215 22.9318C40.4644 22.9318 40.712 22.9523 40.9558 22.9914L42.8417 31.3644ZM9.31991 37.8586C9.95247 37.053 10.3532 36.058 10.4209 34.9736H11.6751C12.9919 34.9736 14.0632 36.0449 14.0632 37.3617V38.9291L9.31991 37.8586ZM23.0636 39.984C23.0636 37.4333 25.1387 35.3581 27.6895 35.3581C30.2401 35.3581 32.3153 37.4333 32.3153 39.984C32.3153 41.0258 31.9706 42.0179 31.3373 42.8277L23.1729 40.9851C23.1008 40.6581 23.0636 40.3232 23.0636 39.984ZM13.3798 19.5466C10.225 23.979 8.55732 29.2002 8.55732 34.6456C8.55732 36.4861 7.05997 37.9834 5.21949 37.9834C3.37901 37.9834 1.88167 36.4861 1.88167 34.6456C1.88167 30.2231 2.74861 25.9311 4.45831 21.8888C6.10884 17.9862 8.47134 14.482 11.48 11.4733C14.4887 8.46466 17.9929 6.10225 21.8955 4.45171C25.9377 2.74202 30.2298 1.87508 34.6523 1.87508C36.4928 1.87508 37.9901 3.37242 37.9901 5.2129C37.9901 7.05338 36.4928 8.55072 34.6523 8.55072C29.2034 8.55072 23.9795 10.2203 19.5455 13.3789C17.9273 14.7573 14.4285 17.9207 13.3798 19.5466ZM45.8929 46.1127C45.975 46.1315 46.0313 46.096 46.0642 46.0632C46.097 46.0305 46.1323 45.9742 46.1137 45.8921L43.276 33.2927C42.341 33.7919 41.2914 34.0587 40.215 34.0587C36.6303 34.0587 33.714 31.1424 33.714 27.5578C33.714 23.9731 36.6304 21.0568 40.215 21.0568C40.3176 21.0568 40.4198 21.0601 40.5219 21.0649L37.8737 9.30666C36.9862 10.0065 35.8675 10.4258 34.6522 10.4258C29.5956 10.4259 24.748 11.9751 20.6334 14.9061C19.0272 16.3601 15.6334 19.5412 14.9075 20.634C12.2801 24.3254 10.7651 28.6065 10.4819 33.0985H11.6752C14.026 33.0985 15.9384 35.011 15.9384 37.3617V44.947C15.9384 45.5965 16.4669 46.1249 17.1163 46.1249C17.7657 46.1249 18.2942 45.5965 18.2942 44.947V43.7578C18.2942 42.4428 19.364 41.3731 20.6789 41.3731C20.8472 41.3731 21.0034 41.2907 21.0991 41.152C21.1452 41.0798 21.2006 41.0159 21.2626 40.9601C21.2141 40.6384 21.1885 40.3126 21.1885 39.9839C21.1885 36.3993 24.1048 33.483 27.6895 33.483C31.2742 33.483 34.1904 36.3993 34.1904 39.9839C34.1904 41.1559 33.8808 42.2836 33.3007 43.2708L45.8929 46.1127Z" fill="#212721"/>
</svg>