<svg xmlns="http://www.w3.org/2000/svg" width="52" height="54" viewBox="0 0 52 54" fill="none">
<path d="M40 10.3637C39.3389 10.3637 38.6481 10.4511 37.9306 10.5844C35.5279 7.78354 31.9712 6 28.0001 6C24.0289 6 20.4721 7.78354 18.0695 10.5843C17.3519 10.4511 16.6611 10.3636 16.0001 10.3636C9.38313 10.3637 4 15.7468 4 22.3636C4 26.8977 6.55682 31.0195 10.571 33.0575L10.5498 49.5437C10.5487 50.7336 11.011 51.8523 11.8516 52.6939C12.6932 53.5366 13.8107 54 15.0008 54H41.0036C43.4582 54 45.4546 52.0035 45.4546 49.549V33.0415C49.4539 30.9982 52.0001 26.8828 52.0001 22.3636C52 15.7468 46.6169 10.3637 40 10.3637Z" fill="#509E2F"/>
<path d="M12 22.3185C12.3269 22.3185 12.5909 22.5826 12.5909 22.9094C12.5909 23.391 12.7299 23.9301 12.9312 24.4655C13.135 25.0077 13.416 25.5801 13.729 26.1381C14.3544 27.253 15.1275 28.3454 15.7295 29.0791C15.9366 29.3329 15.8995 29.705 15.6482 29.9119C15.5371 30.0024 15.405 30.0458 15.2738 30.0458C15.1022 30.0458 14.9328 29.972 14.8151 29.8297C14.6403 29.6161 13.7789 28.5454 12.9631 27.181C12.1324 25.7918 11.4091 24.1947 11.4091 22.9094C11.4091 22.5826 11.6731 22.3185 12 22.3185Z" fill="#212721" stroke="#212721"/>
<path d="M35.9998 21.8185C35.3968 21.8185 34.9088 22.3064 34.9088 22.9094C34.9088 24.4829 33.053 27.3349 31.8833 28.7635C31.5019 29.2291 31.57 29.9162 32.0357 30.2986C32.2381 30.4648 32.4831 30.5458 32.727 30.5458C33.0423 30.5458 33.3545 30.4095 33.5708 30.1474C33.9309 29.7074 37.0907 25.7742 37.0907 22.9094C37.0907 22.3064 36.6028 21.8185 35.9998 21.8185Z" fill="#212721"/>
<path d="M24.0002 21.8185C23.3972 21.8185 22.9093 22.3064 22.9093 22.9094V29.4549C22.9093 30.0579 23.3972 30.5458 24.0002 30.5458C24.6032 30.5458 25.0912 30.0579 25.0912 29.4549V22.9094C25.0911 22.3064 24.6031 21.8185 24.0002 21.8185Z" fill="#212721"/>
<path d="M36 4.36367C35.3389 4.36367 34.6481 4.45112 33.9306 4.58438C31.5279 1.78354 27.9712 0 24.0001 0C20.0289 0 16.4721 1.78354 14.0695 4.58428C13.3519 4.45112 12.6611 4.36357 12.0001 4.36357C5.38313 4.36367 0 9.7468 0 16.3636C0 20.8977 2.55682 25.0195 6.57103 27.0575L6.54975 43.5437C6.54873 44.7336 7.01101 45.8523 7.85159 46.6939C8.69319 47.5366 9.81072 48 11.0008 48H37.0036C39.4582 48 41.4546 46.0035 41.4546 43.549V27.0415C45.4539 24.9982 48.0001 20.8828 48.0001 16.3636C48 9.7468 42.6169 4.36367 36 4.36367ZM39.2728 43.5491C39.2728 44.7998 38.2543 45.8183 37.0035 45.8183H11.0007C10.3945 45.8183 9.82453 45.5818 9.39519 45.1525C8.96687 44.7232 8.73042 44.1532 8.73144 43.546L8.73717 39.2728H39.2728V43.5491ZM39.9482 25.3434C39.8906 25.3668 39.8363 25.3945 39.7851 25.4276C39.6477 25.5128 39.5348 25.6258 39.4506 25.7557C39.3654 25.8845 39.3078 26.0337 39.2844 26.1935C39.2748 26.2542 39.2716 26.315 39.2727 26.3768V37.0909H8.73993L8.75394 26.3916C8.75496 26.332 8.75179 26.2712 8.7433 26.2126C8.71988 26.0474 8.65913 25.894 8.57067 25.7609C8.48752 25.6362 8.3789 25.5276 8.24677 25.4445C8.19246 25.4104 8.13488 25.3805 8.07526 25.356C4.49468 23.7902 2.18179 20.2638 2.18179 16.3636C2.18179 10.9495 6.58596 6.54546 12 6.54546C12.2116 6.54546 12.4349 6.57103 12.6541 6.58831C11.5504 8.50654 10.909 10.7232 10.909 13.0909C10.909 13.6939 11.397 14.1819 12 14.1819C12.603 14.1819 13.0909 13.6939 13.0909 13.0909C13.0909 7.07595 17.9851 2.18179 24.0001 2.18179C30.015 2.18179 34.9091 7.07595 34.9091 13.0909C34.9091 13.6939 35.397 14.1819 36 14.1819C36.603 14.1819 37.091 13.6939 37.091 13.0909C37.091 10.7232 36.4496 8.50664 35.3459 6.58831C35.5651 6.57103 35.7884 6.54546 36 6.54546C41.4141 6.54546 45.8182 10.9496 45.8182 16.3636C45.8182 20.25 43.5149 23.772 39.9482 25.3434Z" fill="#212721"/>
</svg>