<svg xmlns="http://www.w3.org/2000/svg" width="12" height="9" viewBox="0 0 12 9" fill="none">
<path d="M4.83778 7.71314C4.94136 7.709 5.03671 7.66545 5.10725 7.59028L10.3049 1.14543C10.44 0.977888 10.6859 0.95117 10.8541 1.08583L4.83778 7.71314ZM4.83778 7.71314C4.73116 7.71742 4.63018 7.67948 4.55413 7.60746M4.83778 7.71314L4.65743 7.49869M10.9478 0.968736C11.1807 1.15521 11.218 1.49485 11.0306 1.72714L11.0306 1.72715L5.8254 8.18145L5.82511 8.18182C5.81936 8.1889 5.81325 8.1961 5.80676 8.20333L5.80671 8.20339C5.56637 8.47081 5.23493 8.62635 4.87521 8.64075M10.9478 0.968736L4.86921 8.49087M10.9478 0.968736C10.7152 0.78249 10.3752 0.819324 10.1881 1.05127L4.99444 7.49122M10.9478 0.968736L4.99444 7.49122M4.87521 8.64075L4.86921 8.49087M4.87521 8.64075C4.87525 8.64075 4.87529 8.64075 4.87533 8.64074L4.86921 8.49087M4.87521 8.64075C4.85702 8.64149 4.83881 8.64186 4.82069 8.64186C4.4808 8.64186 4.15931 8.51406 3.91153 8.2794L3.91108 8.27897L1.01672 5.51482L1.01672 5.51482C0.800933 5.30873 0.793645 4.96712 1.00052 4.75208L1.00054 4.75207C1.20712 4.53738 1.54901 4.53016 1.76451 4.73593L1.76452 4.73594L4.65727 7.49854L4.55413 7.60746M4.86921 8.49087C4.85302 8.49153 4.8368 8.49186 4.82069 8.49186C4.51917 8.49186 4.2346 8.37876 4.01468 8.17049L1.12032 5.40635C0.964578 5.2576 0.959343 5.01124 1.10862 4.85608C1.25792 4.70093 1.50516 4.69569 1.66093 4.84442L4.55413 7.60746M4.55413 7.60746L4.65773 7.49898L4.65743 7.49869M4.65743 7.49869C4.70383 7.54256 4.76529 7.56593 4.83176 7.56326L4.83178 7.56326C4.89449 7.56075 4.95131 7.53539 4.99444 7.49122M4.65743 7.49869L4.99049 7.49611L4.99444 7.49122" fill="#518B26" stroke="#518B26" stroke-width="0.3"/>
</svg>