<svg xmlns="http://www.w3.org/2000/svg" width="20" height="20" viewBox="0 0 20 20" fill="none">
<path d="M9.16797 1.66663H7.5013C3.33464 1.66663 1.66797 3.33329 1.66797 7.49996V12.5C1.66797 16.6666 3.33464 18.3333 7.5013 18.3333H12.5013C16.668 18.3333 18.3346 16.6666 18.3346 12.5V10.8333" stroke="#D22730" stroke-width="1.5" stroke-linecap="round" stroke-linejoin="round"/>
<path d="M13.3675 2.51663L6.80088 9.0833C6.55088 9.3333 6.30088 9.82497 6.25088 10.1833L5.89254 12.6916C5.75921 13.6 6.40088 14.2333 7.30921 14.1083L9.81754 13.75C10.1675 13.7 10.6592 13.45 10.9175 13.2L17.4842 6.6333C18.6175 5.49997 19.1509 4.1833 17.4842 2.51663C15.8175 0.849967 14.5009 1.3833 13.3675 2.51663Z" stroke="#D22730" stroke-width="1.5" stroke-miterlimit="10" stroke-linecap="round" stroke-linejoin="round"/>
<path d="M12.4258 3.45837C12.9841 5.45004 14.5424 7.00837 16.5424 7.57504" stroke="#D22730" stroke-width="1.5" stroke-miterlimit="10" stroke-linecap="round" stroke-linejoin="round"/>
</svg>