<svg xmlns="http://www.w3.org/2000/svg" width="385" height="264" viewBox="0 0 385 264" fill="none">
<path d="M349.111 113.119C349.592 113.825 349.908 114.938 348.969 115.726C348.029 116.513 346.472 116.394 345.189 116.678C344.919 116.714 344.681 116.581 344.41 116.618C341.634 116.443 338.959 116.2 336.288 116.396C330.708 116.656 325.952 118.125 322.529 120.901C321.288 121.895 321.562 122.298 321.7 122.499C321.975 122.903 322.96 123.265 323.775 123.595C324.183 123.76 324.691 123.856 324.998 124.09C325.406 124.255 325.951 124.621 326.294 125.125C326.5 125.428 326.706 125.73 326.642 126.069C326.546 126.578 326.381 126.985 325.945 127.43C324.672 128.593 321.763 128.657 319.596 128.509C318.716 128.518 317.869 128.358 317.09 128.298C316.65 128.303 316.242 128.138 315.803 128.142L315.633 128.11C315.124 128.014 314.007 127.89 313.672 128.265C313.571 128.334 313.64 128.435 313.608 128.604C313.677 128.705 313.915 128.838 313.984 128.939C314.222 129.072 314.222 129.072 314.222 129.072L314.428 129.374L314.703 129.777C314.84 129.979 314.776 130.318 314.712 130.657C314.217 131.88 311.477 131.975 309.988 131.957C309.819 131.925 309.548 131.961 309.379 131.929C308.398 132.007 307.45 131.915 306.47 131.993C304.88 132.043 303.391 132.024 301.939 132.275C299.034 132.779 296.134 133.722 293.403 134.697L292.29 135.013C291.919 135.118 291.548 135.223 291.076 135.397C289.862 135.782 288.616 136.336 287.466 136.381C286.925 136.455 286.687 136.322 286.481 136.019C286.344 135.818 286.206 135.616 286.17 135.346L286.032 135.144C285.858 134.672 285.616 134.099 285.712 133.591C285.808 133.082 286.45 132.941 286.99 132.867C287.192 132.73 287.361 132.762 287.462 132.693C288.305 132.414 289.079 132.034 289.684 131.622C290.995 130.729 292.168 129.634 293.034 128.306C293.698 127.115 294.464 125.855 295.055 124.124C295.119 123.785 295.284 123.377 295.349 123.038C295.477 122.36 295.706 121.614 296.174 121C296.472 120.354 296.875 120.079 297.617 119.869L297.617 119.869C297.888 119.832 298.158 119.795 298.327 119.827C298.666 119.892 298.836 119.924 299.138 119.718C299.34 119.58 299.505 119.173 299.569 118.834C299.601 118.664 299.702 118.595 299.734 118.426C300.165 117.542 300.357 116.525 300.619 115.609C300.683 115.27 300.816 115.032 300.88 114.693C301.339 113.199 302.1 111.5 303.332 109.626L303.465 109.388C304.098 108.367 305.065 106.97 306.347 106.686C307.158 106.576 307.736 106.773 308.079 107.277C308.629 108.084 308.477 109.811 308.252 110.997L308.252 110.998C307.991 111.914 307.729 112.83 307.299 113.714C306.868 114.598 306.51 116.022 306.89 116.797C307.096 117.099 307.266 117.131 307.435 117.163C308.214 117.223 309.584 115.551 309.951 115.006C311.619 112.689 312.605 109.803 313.357 107.224L313.489 106.985L314.177 104.745C314.865 102.505 315.484 100.164 316.511 97.9886L316.644 97.7505C317.304 96.1197 318.395 93.6049 320.113 92.8769C321.157 92.4603 322.174 92.653 322.724 93.4594C322.93 93.7618 322.967 94.032 323.003 94.3023L323.003 94.3023C323.113 95.1132 322.783 95.9287 322.586 96.5058C322.453 96.744 322.421 96.9135 322.288 97.1517C322.191 97.6602 321.926 98.1366 321.829 98.6451C321.765 98.9841 321.669 99.4925 321.705 99.7628C321.673 99.9323 321.673 99.9323 321.673 99.9323C322.008 99.5568 322.273 99.0804 322.539 98.6041L322.539 98.604C323.071 97.6512 323.635 96.529 324.922 96.685C325.362 96.6805 325.669 96.9143 325.875 97.2167C326.218 97.7207 326.191 98.33 326.094 98.8385C326.36 98.3621 326.525 97.9544 326.69 97.5467L329.637 91.2574C330.366 89.7275 330.994 88.2663 331.86 86.9379L331.86 86.9379C332.493 85.9164 334.39 82.8521 336.222 83.3748C336.561 83.439 336.8 83.5719 337.006 83.8743C337.487 84.5799 337.463 85.629 337.505 86.3391C337.413 87.2874 337.353 88.0662 337.293 88.845C337.33 89.1153 337.298 89.2848 337.266 89.4543C337.201 89.7933 337.238 90.0636 337.206 90.2331C337.412 90.5355 337.65 90.6684 337.92 90.6318C338.8 90.6229 339.9 88.9876 340.468 88.3051L344.038 83.3629C345.005 81.9659 345.972 80.5689 347.04 79.1031C347.273 78.7963 347.438 78.3885 347.773 78.013L347.799 77.975C349.133 76.0316 351.188 73.0391 353.441 73.117C354.252 73.0072 354.829 73.2044 355.104 73.6076C355.241 73.8092 355.347 74.1803 355.383 74.4506C355.493 75.2615 355.264 76.0082 354.902 76.993C354.737 77.4007 354.471 77.8771 354.205 78.3535L353.939 78.8299L353.939 78.8301C353.673 79.3065 353.009 80.4973 353.251 81.0699C354.539 81.226 355.945 79.8245 357.219 78.6612L357.22 78.6609C357.655 78.2167 358.09 77.7726 358.493 77.4978C358.626 77.2597 358.828 77.1223 359.13 76.9163L359.13 76.9162C359.969 76.1971 361.009 75.3407 362.021 75.0935C362.731 75.0525 363.24 75.1488 363.583 75.6529L363.927 76.1569L364.064 76.3585C364.064 76.3585 364.234 76.3905 364.706 76.2166C365.448 76.006 366.121 75.6947 366.896 75.3146L367.097 75.1773C368.444 74.5545 369.791 73.9318 371.184 74.459C371.491 74.6927 371.729 74.8256 371.935 75.128C372.347 75.7328 372.287 76.5116 371.957 77.327C371.595 78.3119 370.656 79.0996 369.987 79.8508L369.684 80.0569C369.483 80.1942 369.249 80.5011 368.947 80.7072C368.108 81.4262 367.068 82.2827 367.246 83.1944C367.214 83.3639 367.283 83.4647 367.352 83.5655L367.489 83.7671C367.558 83.8679 367.695 84.0695 367.53 84.4772C367.333 85.0544 366.696 85.6361 366.192 85.9795L365.89 86.1856C363.878 87.9993 361.427 89.8174 358.668 91.4018C357.66 92.0888 356.318 93.1513 356.157 93.9988C356.125 94.1683 356.162 94.4386 356.299 94.6402C356.437 94.8418 356.812 95.1763 357.321 95.2726C357.728 95.4376 358.168 95.4332 358.608 95.4287C359.048 95.4242 359.488 95.4198 359.827 95.484C360.234 95.649 361.219 96.0111 361.631 96.616C361.769 96.8175 361.805 97.0877 361.842 97.358L361.842 97.3581C361.819 98.4072 360.504 98.8605 359.459 99.2771L359.459 99.2772C359.088 99.3824 358.717 99.4877 358.415 99.6937C358.588 100.166 358.694 100.537 358.46 100.844C357.928 101.796 355.798 101.92 354.648 101.965C350.388 102.212 346.851 103.736 342.608 105.742C342.608 105.742 342.677 105.843 342.846 105.875C343.254 106.04 343.661 106.205 343.868 106.507C344.005 106.709 344.042 106.979 344.009 107.149C344.014 107.588 343.812 107.726 343.51 107.932L343.51 107.932L343.409 108C343.276 108.239 342.804 108.413 342.332 108.587C341.76 108.829 341.118 108.971 341.054 109.31C340.953 109.379 341.022 109.48 341.091 109.58C341.159 109.681 341.329 109.713 341.397 109.814C341.943 110.181 342.96 110.373 343.876 110.635C344.384 110.731 344.893 110.827 345.3 110.992L345.708 111.157C346.693 111.52 347.779 111.813 348.53 112.482C348.768 112.615 348.974 112.917 349.111 113.119Z" fill="#509E2F"/>
<path d="M349.932 110.641C350.871 109.853 350.556 108.74 350.075 108.034C349.937 107.832 349.731 107.53 349.493 107.397C348.742 106.728 347.656 106.435 346.671 106.072L346.264 105.907C345.856 105.742 345.348 105.646 344.839 105.55C343.923 105.288 342.906 105.096 342.361 104.729C342.292 104.628 342.123 104.596 342.054 104.495C341.985 104.395 341.917 104.294 342.017 104.225C342.082 103.886 342.723 103.744 343.296 103.502C343.768 103.328 344.24 103.154 344.372 102.915L344.473 102.847C344.776 102.641 344.977 102.503 344.973 102.064C345.005 101.894 344.968 101.624 344.831 101.422C344.625 101.12 344.217 100.955 343.809 100.79C343.64 100.758 343.571 100.657 343.571 100.657C347.814 98.6512 351.351 97.1266 355.612 96.8802C356.762 96.8347 358.892 96.7115 359.423 95.7587C359.657 95.4518 359.552 95.0807 359.378 94.6088C359.68 94.4027 360.051 94.2974 360.422 94.1922C361.467 93.7755 362.782 93.3223 362.805 92.2732C362.769 92.0029 362.732 91.7326 362.595 91.531C362.182 90.9262 361.198 90.5641 360.79 90.399C360.451 90.3348 360.011 90.3393 359.571 90.3437C359.132 90.3482 358.692 90.3527 358.284 90.1877C357.776 90.0913 357.4 89.7568 357.263 89.5552C357.125 89.3536 357.089 89.0833 357.121 88.9138C357.281 88.0663 358.624 87.0038 359.632 86.3169C362.39 84.7324 364.842 82.9143 366.853 81.1007C366.954 81.032 367.055 80.9633 367.156 80.8946C367.66 80.5511 368.296 79.9694 368.494 79.3922C368.659 78.9846 368.521 78.7829 368.453 78.6821L368.315 78.4805C368.246 78.3797 368.178 78.2789 368.21 78.1094C368.031 77.1977 369.072 76.3413 369.91 75.6222C370.212 75.4161 370.446 75.1093 370.648 74.9719L370.95 74.7658C371.619 74.0146 372.559 73.2269 372.921 72.242C373.251 71.4267 373.311 70.6479 372.898 70.0431C372.692 69.7407 372.454 69.6078 372.147 69.374C370.755 68.8469 369.408 69.4696 368.061 70.0923L367.859 70.2297C367.085 70.6097 366.411 70.9211 365.669 71.1316C365.197 71.3056 365.028 71.2735 365.028 71.2735C365.028 71.2735 364.959 71.1727 364.89 71.0719C364.821 70.9711 364.753 70.8703 364.547 70.5679C364.203 70.0639 363.695 69.9675 362.985 70.0086C361.972 70.2557 360.932 71.1122 360.093 71.8312C359.791 72.0373 359.589 72.1747 359.456 72.4129C359.053 72.6876 358.618 73.1319 358.183 73.5762C356.909 74.7395 355.502 76.141 354.215 75.9849C353.972 75.4122 354.637 74.2213 354.903 73.7449L355.168 73.2686C355.434 72.7922 355.7 72.3158 355.865 71.9081C356.227 70.9232 356.456 70.1765 356.347 69.3656C356.31 69.0953 356.205 68.7243 356.067 68.5227C355.793 68.1195 355.215 67.9223 354.404 68.032C352.137 67.9536 350.07 70.9859 348.736 72.928C348.402 73.3036 348.237 73.7113 348.003 74.0182C346.935 75.4839 345.968 76.8809 345.001 78.278L341.431 83.2202C340.863 83.9026 339.763 85.5379 338.884 85.5468C338.613 85.5834 338.375 85.4505 338.169 85.1481C338.201 84.9786 338.165 84.7083 338.229 84.3693C338.261 84.1998 338.293 84.0303 338.257 83.76C338.316 82.9812 338.376 82.2025 338.468 81.2542C338.427 80.5441 338.45 79.495 337.969 78.7894C337.763 78.4869 337.525 78.354 337.186 78.2898C335.354 77.7671 333.456 80.8315 332.824 81.853C331.958 83.1813 331.33 84.6425 330.601 86.1725L327.654 92.4618C327.489 92.8695 327.324 93.2771 327.058 93.7535C327.154 93.245 327.182 92.6358 326.838 92.1317C326.632 91.8293 326.325 91.5956 325.885 91.6001C324.598 91.444 324.034 92.5663 323.503 93.519C323.237 93.9954 322.971 94.4718 322.637 94.8474C322.637 94.8474 322.637 94.8474 322.669 94.6779C322.632 94.4076 322.728 93.8991 322.793 93.5601C322.889 93.0516 323.155 92.5752 323.251 92.0667C323.384 91.8286 323.416 91.6591 323.549 91.4209C323.746 90.8437 324.076 90.0283 323.966 89.2174C323.93 88.9471 323.893 88.6768 323.687 88.3744C323.138 87.568 322.121 87.3753 321.076 87.7919C319.358 88.5199 318.267 91.0348 317.607 92.6655L317.474 92.9037C316.447 95.0795 315.828 97.4204 315.141 99.6604C314.911 100.407 314.682 101.154 314.453 101.9L314.32 102.139C313.568 104.718 312.582 107.604 310.914 109.921C310.548 110.466 309.177 112.138 308.399 112.078C308.229 112.046 308.06 112.014 307.854 111.712C307.474 110.938 307.831 109.513 308.262 108.629C308.693 107.745 308.954 106.828 309.216 105.912C309.44 104.726 309.592 102.999 309.042 102.192C308.699 101.688 308.122 101.491 307.311 101.601C306.028 101.885 305.061 103.282 304.429 104.303L304.296 104.541C303.063 106.415 302.302 108.114 301.844 109.608C301.779 109.947 301.646 110.185 301.582 110.524C301.321 111.44 301.128 112.457 300.697 113.341C300.665 113.511 300.564 113.579 300.532 113.749C300.468 114.088 300.303 114.495 300.101 114.633C299.799 114.839 299.63 114.807 299.291 114.743C299.121 114.71 298.851 114.747 298.58 114.784C297.838 114.994 297.435 115.269 297.137 115.915C296.67 116.529 296.44 117.275 296.312 117.953C296.248 118.292 296.083 118.7 296.019 119.039C295.427 120.77 294.662 122.03 293.997 123.221C293.131 124.549 291.958 125.644 290.648 126.537C290.043 126.949 289.268 127.329 288.425 127.609C288.325 127.677 288.155 127.645 287.954 127.782C287.413 127.856 286.772 127.998 286.675 128.506C286.579 129.014 286.822 129.587 286.996 130.059L287.133 130.261C287.17 130.531 287.307 130.733 287.444 130.934C287.65 131.237 287.889 131.37 288.429 131.296C289.579 131.251 290.825 130.697 292.039 130.312C292.511 130.138 292.882 130.033 293.253 129.928L294.367 129.612C297.097 128.637 299.998 127.694 302.902 127.19C304.354 126.939 305.843 126.958 307.433 126.908C308.413 126.83 309.362 126.922 310.342 126.844C310.512 126.876 310.782 126.84 310.951 126.872C312.44 126.89 315.18 126.795 315.675 125.572C315.739 125.233 315.803 124.894 315.666 124.692C315.597 124.591 315.46 124.39 315.391 124.289C315.323 124.188 315.254 124.087 315.185 123.987C315.185 123.987 315.185 123.987 314.947 123.854C314.878 123.753 314.64 123.62 314.571 123.519C314.603 123.35 314.535 123.249 314.636 123.18C314.97 122.805 316.088 122.929 316.596 123.025L316.766 123.057C317.206 123.053 317.613 123.218 318.053 123.213C318.832 123.273 319.679 123.433 320.559 123.424C322.726 123.572 325.635 123.508 326.909 122.345C327.344 121.901 327.509 121.493 327.605 120.984C327.67 120.645 327.464 120.343 327.258 120.041C326.914 119.536 326.369 119.17 325.961 119.005C325.654 118.771 325.146 118.675 324.738 118.51C323.923 118.18 322.938 117.818 322.663 117.414C322.526 117.213 322.251 116.81 323.493 115.816C326.916 113.04 331.671 111.571 337.251 111.311C339.922 111.115 342.597 111.358 345.374 111.533C345.644 111.496 345.882 111.629 346.152 111.593C347.435 111.309 348.993 111.428 349.932 110.641ZM324.616 113.131L324.213 113.406C322.733 114.267 320.378 115.577 321.074 117.464C321.142 117.565 321.211 117.666 321.28 117.767C321.761 118.472 322.576 118.802 323.323 119.032C323.561 119.165 323.9 119.229 324.138 119.362C324.477 119.426 324.885 119.591 325.123 119.724C325.53 119.889 325.837 120.123 325.975 120.324C326.112 120.526 326.08 120.695 326.048 120.865C325.984 121.204 325.58 121.479 324.907 121.79C323.189 122.518 321.123 122.302 319.226 122.118C318.786 122.123 318.278 122.027 317.769 121.93C316.583 121.706 315.396 121.481 314.384 121.728C313.743 121.87 312.968 122.25 312.977 123.129C312.945 123.299 313.082 123.501 313.151 123.601C313.357 123.904 313.664 124.137 313.971 124.371C314.209 124.504 314.447 124.637 314.585 124.839C314.653 124.939 314.653 124.939 314.653 124.939C314.621 125.109 314.186 125.553 309.078 125.639L308.739 125.575C308.029 125.616 307.42 125.588 306.71 125.629C305.221 125.611 303.8 125.693 302.449 125.876C301.436 126.123 300.525 126.301 299.512 126.548C301.262 125.651 303.214 124.616 305.198 123.412L306.614 122.89C308.974 122.02 311.232 121.219 313.596 120.789C316.4 120.354 319.309 120.291 322.323 120.598C322.323 120.598 322.424 120.53 322.525 120.461L322.557 120.291L322.488 120.191C317.912 119.324 313.111 119.643 309.198 120.833C311.013 119.597 312.827 118.36 314.573 117.023C315.279 116.542 316.016 115.892 316.722 115.411C319.072 113.662 321.698 112.315 324.561 111.102C326.651 110.269 328.708 109.605 330.801 109.211C335.461 108.25 340.097 108.339 343.652 108.573C343.652 108.573 343.753 108.504 343.853 108.436L343.886 108.266L343.817 108.165C339.749 107.395 335.351 107.44 330.49 108.538C326.912 109.352 324.012 110.296 321.758 111.537C323.737 109.892 325.749 108.079 327.829 106.366C331.417 103.183 335.105 99.9309 338.794 96.6791C342.042 96.6799 345.387 96.1722 348.832 95.5958L350.014 95.3808C352.818 94.9462 355.553 94.4109 358.045 93.3028L358.146 93.2341L358.077 93.1333C358.077 93.1333 358.008 93.0326 357.908 93.1013C356.116 93.2887 354.192 93.7142 352.437 94.1719C351.155 94.4556 349.771 94.8081 348.42 94.991C346.527 95.2471 344.466 95.4711 342.675 95.6585C341.694 95.7361 340.782 95.9146 339.903 95.9235C344.531 91.884 349.228 87.9453 353.892 84.1761C353.892 84.1761 353.961 84.2769 354.062 84.2082C355.143 84.0618 356.155 83.8147 357.2 83.3981C357.571 83.2928 357.873 83.0867 358.144 83.0501C359.257 82.7343 360.201 82.3864 361.246 81.9697L362.661 81.4478C362.762 81.3791 362.762 81.3791 362.693 81.2783C362.625 81.1775 362.625 81.1775 362.524 81.2462L362.254 81.2828C360.87 81.6352 359.317 81.9555 357.832 82.3766C357.461 82.4819 357.191 82.5185 356.82 82.6238C356.178 82.7656 355.537 82.9075 354.964 83.1501C359.327 79.587 363.423 76.5003 367.451 73.3128C367.551 73.2441 367.551 73.244 367.483 73.1432C367.414 73.0424 367.414 73.0424 367.313 73.1111C364.491 75.0346 361.535 77.1962 358.245 79.7334C354.012 82.6185 349.915 85.7053 346.089 88.7554C346.451 87.7706 346.914 86.717 347.276 85.7321C347.772 84.509 348.166 83.3547 348.661 82.1316C349.555 80.194 350.549 78.1876 351.613 76.2821L352.277 75.0912L352.309 74.9217C352.309 74.9217 352.241 74.8209 352.14 74.8896L352.039 74.9583C348.501 79.731 346.118 84.8981 345.214 89.2042C345.214 89.2042 345.283 89.305 345.182 89.3737L344.041 90.2988C340.215 93.3489 336.792 96.1243 333.369 98.8997C334.396 96.7239 335.047 94.2136 335.497 91.8406C336.047 89.399 336.556 86.2472 336.186 83.1044C336.186 83.1044 336.117 83.0036 336.017 83.0723L335.916 83.141C335.755 83.9885 335.663 84.9367 335.604 85.7155C335.42 87.6121 335.167 89.4079 334.814 91.2724C334.392 93.036 333.801 94.7676 333.31 96.4304C332.916 97.5848 332.554 98.5697 332.261 99.6554C330.583 101.093 329.007 102.463 327.33 103.901C326.391 104.689 325.52 105.577 324.48 106.434C322.468 108.247 320.356 110.13 318.175 111.911C317.772 112.186 317.268 112.53 316.933 112.905C317.859 110.798 318.309 108.425 318.827 106.153C318.955 105.475 319.052 104.966 319.249 104.389C320.125 100.692 321.097 96.4871 321.19 92.2907L321.02 92.2586C321.02 92.2586 320.919 92.3273 320.818 92.396C320.397 94.1596 320.112 96.1249 319.759 97.9894C319.406 99.8538 319.052 101.718 318.699 103.583C318.245 105.516 317.69 107.518 317.168 109.35C317.071 109.859 316.874 110.436 316.608 110.912C316.246 111.897 315.884 112.882 315.792 113.83C313.978 115.067 312.163 116.303 310.349 117.54L308.434 118.845C305.309 120.974 302.047 122.902 298.679 124.459C300.283 122.48 301.575 119.828 302.602 117.652L302.634 117.483C304.225 114.185 305.508 110.653 306.251 107.194L306.183 107.094C306.114 106.993 306.114 106.993 306.013 107.061C306.013 107.061 305.912 107.13 305.811 107.199C304.597 110.831 303.276 114.093 301.952 116.915C301.223 118.445 300.256 119.842 299.358 121.339L298.624 122.43C297.859 123.689 297.126 124.779 295.948 125.434C294.872 126.02 293.827 126.437 292.782 126.854C295.399 124.628 296.953 121.059 297.906 118.343C297.938 118.173 297.97 118.004 298.071 117.935C298.3 117.189 298.397 116.68 299.171 116.3C299.542 116.195 299.744 116.057 300.014 116.021C300.756 115.81 301.499 115.6 301.929 114.716C302.36 113.832 302.622 112.915 302.883 111.999C302.979 111.491 303.144 111.083 303.341 110.506L303.438 109.997C303.534 109.489 303.8 109.013 303.896 108.504C304.524 107.043 305.39 105.714 306.257 104.386L306.389 104.148C306.756 103.603 307.356 102.751 307.897 102.678C308.167 102.641 308.405 102.774 308.543 102.976L308.612 103.076C309.23 103.984 308.304 106.091 307.942 107.076L307.809 107.314C307.282 108.706 306.823 110.2 307.075 111.652C307.18 112.023 307.217 112.293 307.423 112.596C307.629 112.898 307.936 113.132 308.275 113.196C308.884 113.224 309.727 112.945 310.465 112.294C314.02 109.281 315.226 104.768 316.501 100.357C316.698 99.7799 316.895 99.2027 316.992 98.6942C317.157 98.2865 317.253 97.778 317.418 97.3703C317.776 95.9457 318.234 94.4523 318.862 92.9911C319.325 91.9375 319.655 91.1221 320.223 90.4397C320.255 90.2702 320.457 90.1328 320.489 89.9633C320.888 89.2487 321.387 88.4654 322.13 88.2549C322.602 88.0809 323.009 88.246 323.284 88.6492C323.421 88.8508 323.527 89.2218 323.462 89.5608C323.435 90.1701 323.169 90.6465 322.972 91.2237C322.807 91.6314 322.674 91.8696 322.509 92.2773C322.28 93.024 322.055 94.2104 322.165 95.0213C322.201 95.2916 322.238 95.562 322.307 95.6628C322.444 95.8644 322.613 95.8964 322.783 95.9285C323.392 95.9562 324.162 95.1364 324.327 94.7287C324.428 94.66 324.561 94.4218 324.694 94.1836C324.992 93.5377 325.523 92.5849 325.963 92.5805C326.233 92.5439 326.673 92.5394 326.742 92.6402C326.879 92.8418 326.714 93.2495 326.65 93.5885C326.618 93.758 326.618 93.758 326.586 93.9275L326.554 94.097C326.489 94.436 326.324 94.8437 326.43 95.2148C326.498 95.3156 326.567 95.4164 326.636 95.5172C326.773 95.7188 327.011 95.8517 327.181 95.8838C327.891 95.8427 328.821 94.1754 329.449 92.7142C329.481 92.5447 329.582 92.476 329.582 92.476C330.38 91.0469 331.008 89.5856 331.636 88.1244C332.232 86.8326 332.928 85.4721 333.524 84.1803C334.221 82.8199 334.95 81.2899 336.022 80.264C336.558 79.751 336.961 79.4763 337.3 79.5405C337.47 79.5726 337.538 79.6734 337.676 79.875C337.813 80.0766 337.987 80.5485 337.959 81.1578C338.069 81.9687 337.909 82.8162 337.849 83.595L337.885 83.8653C337.853 84.0348 337.922 84.1356 337.89 84.3051C337.862 84.9144 337.734 85.5924 338.077 86.0964C338.421 86.6004 339.268 86.761 339.809 86.6878C341.399 86.6378 342.599 84.9338 343.465 83.6055C343.699 83.2986 343.832 83.0604 343.965 82.8222L345.665 80.335C346.834 78.8006 347.934 77.1654 349.102 75.631C349.368 75.1546 349.735 74.6096 350.101 74.0645C351.233 72.2598 352.53 70.0473 354.248 69.3193C354.72 69.1453 355.43 69.1043 355.705 69.5075L355.774 69.6083C355.948 70.0802 355.485 71.1338 355.288 71.711C355.123 72.1187 354.857 72.5951 354.522 72.9706C354.124 73.6852 353.656 74.2989 353.427 75.0456C353.331 75.5541 353.303 76.1634 353.578 76.5666C353.784 76.8691 354.091 77.1027 354.599 77.1991C355.447 77.3596 356.423 76.8422 357.664 75.8483C357.967 75.6423 358.201 75.3354 358.503 75.1293C359.039 74.6163 359.575 74.1034 360.18 73.6912C360.684 73.3477 361.188 73.0043 361.793 72.5921L362.398 72.1799C362.934 71.667 363.474 71.5938 364.221 71.8231C364.189 71.9926 364.157 72.162 364.294 72.3636C364.363 72.4644 364.432 72.5652 364.601 72.5974C365.888 72.7534 367.034 72.2681 368.111 71.6819C369.086 71.1645 370.03 70.8166 370.91 70.8076C371.519 70.8353 371.927 71.0003 372.064 71.2019C372.408 71.7059 371.743 72.8969 370.204 74.5366C369.97 74.8434 369.667 75.0495 369.534 75.2877C368.765 76.1076 367.926 76.8266 367.225 77.7473C367.092 77.9854 367.06 78.155 367.197 78.3566L367.266 78.4574C367.472 78.7598 367.509 79.0301 367.444 79.3691C367.188 80.725 364.599 82.3416 362.01 83.9581C359.018 85.8494 355.925 87.8095 356.012 89.6695C356.048 89.9398 356.154 90.3109 356.291 90.5125C356.703 91.1173 357.519 91.4473 358.705 91.6721C358.875 91.7042 359.145 91.6676 359.314 91.6997C360.093 91.7594 361.243 91.7139 361.587 92.2179C361.829 92.7906 360.615 93.1752 359.74 93.6239C359.167 93.8666 358.695 94.0406 358.494 94.178C358.191 94.3841 358.228 94.6544 358.434 94.9568C358.503 95.0576 358.571 95.1583 358.471 95.227C358.338 95.4652 357.664 95.7766 354.925 95.8722C354.755 95.8401 354.654 95.9087 354.654 95.9087C353.303 96.0916 351.951 96.2746 350.467 96.6957C347.058 97.5424 344.465 98.7191 342.417 100.262C342.316 100.331 342.215 100.4 342.284 100.501C342.284 100.501 342.082 100.638 341.982 100.707C341.78 100.844 341.748 101.014 341.954 101.316C342.33 101.651 342.499 101.683 342.669 101.715C342.838 101.747 343.008 101.779 343.246 101.912C343.314 102.013 343.314 102.013 343.314 102.013C343.383 102.114 343.383 102.114 343.282 102.182C343.085 102.759 341.468 103.419 340.826 103.561L340.556 103.597C340.455 103.666 340.254 103.803 340.222 103.973C340.189 104.142 340.258 104.243 340.226 104.413C340.295 104.513 340.432 104.715 340.501 104.816C341.05 105.622 341.866 105.952 342.782 106.214L343.698 106.475C344.614 106.736 345.361 106.966 346.245 107.396C346.415 107.428 346.483 107.529 346.653 107.561C347.299 107.859 348.045 108.089 348.458 108.693C348.732 109.097 348.737 109.536 348.471 110.013C348.136 110.388 347.733 110.663 347.225 110.567C345.736 110.548 344.247 110.529 342.859 110.442C340.422 110.332 337.815 110.189 335.213 110.486C331.218 110.256 327.677 111.341 324.616 113.131Z" fill="#212721"/>
<path d="M143.796 144.17C140.949 145.583 138.102 146.912 133.198 146.912C129.48 146.912 125.842 145.998 122.599 144.087C113.424 138.685 108.441 123.559 120.147 113.502C120.543 113.17 120.78 112.92 121.254 112.671C121.65 112.505 122.915 115.497 126.396 114.832C126.079 115.164 125.367 115.912 124.576 116.245C123.627 116.577 122.757 116.577 121.808 116.328C123.074 118.406 124.814 119.237 126.712 119.071C130.271 118.821 130.825 115.331 132.644 116.494C133.435 116.993 133.989 117.741 134.78 118.156C138.023 119.985 140.949 118.738 142.056 116.827C139.209 116.827 137.943 115.912 136.757 114.583H136.994C137.39 114.666 137.548 114.666 138.102 114.583C138.893 114.583 139.763 114.333 140.475 114.001C141.186 113.668 141.898 113.087 142.452 112.505C142.61 112.256 142.847 112.006 143.006 111.757C147.593 114.333 151.469 118.738 152.892 124.057C154.316 130.54 150.915 140.014 143.796 144.17Z" fill="#D22730"/>
<path d="M120.464 109.928L120.226 109.43C121.254 110.676 122.757 111.424 124.339 111.674C125.921 111.923 127.503 111.84 129.085 111.674C128.848 111.508 128.61 111.341 128.452 111.092C128.294 110.843 128.136 110.676 127.978 110.427C127.424 109.679 126.949 108.931 126.87 107.518C127.266 108.183 127.582 108.765 128.136 109.347C128.61 109.845 129.243 110.344 129.955 110.427C129.243 111.84 129.639 113.336 130.983 113.668C133.751 114.416 134.384 113.336 134.305 111.508C134.305 111.341 134.147 110.593 134.226 110.593C135.729 109.264 136.52 107.435 136.915 105.441C137.469 109.347 136.678 110.178 135.729 111.674C136.441 111.84 138.813 112.505 141.424 110.843C142.215 110.51 143.006 109.928 143.638 109.264C143.638 109.43 143.559 109.513 143.559 109.679C143.48 109.928 143.322 110.261 143.164 110.51C143.006 110.76 142.847 110.926 142.768 111.175C140.079 114.832 136.52 113.918 134.542 113.585C136.441 115.414 137.153 116.744 139.446 117.325C140 117.492 140.554 117.492 141.186 117.492C136.362 120.816 133.119 114.167 131.3 115.248C130.429 115.746 129.718 118.24 126.317 118.24C125.051 118.24 123.786 117.907 122.757 117.159C123.074 117.325 123.469 117.242 123.786 117.159C126.396 116.494 126.396 115.746 127.582 114.832C127.819 114.666 128.294 114.084 128.689 113.835V113.752C128.215 113.835 127.819 114.001 127.345 114.084C124.181 114.333 121.729 112.671 120.464 109.928Z" fill="#D22730"/>
<path d="M130.746 108.017C130.35 105.607 128.689 104.609 128.61 104.609C128.61 104.526 128.689 103.446 129.639 103.03C129.797 102.947 129.955 103.03 130.034 103.197C130.271 103.945 129.164 104.776 129.322 104.776C129.559 104.776 130.429 104.277 130.509 103.695C132.249 105.773 133.277 108.1 133.672 110.926C134.147 114.084 130.429 113.419 129.955 112.172C129.639 110.843 131.22 110.676 130.746 108.017Z" fill="#D22730"/>
<path d="M140.158 110.593C139.13 111.009 137.864 111.341 136.757 111.175C137.469 109.679 137.39 109.762 137.469 109.679C138.655 110.012 139.288 110.261 140.158 110.593Z" fill="#D22730"/>
<path d="M134.621 109.264C134.463 109.43 134.384 109.596 134.226 109.762C134.226 109.596 134.147 109.43 134.147 109.347C134.147 109.264 134.542 109.264 134.621 109.264Z" fill="#D22730"/>
<path d="M130.271 109.679C130.271 109.845 130.192 110.012 130.192 110.095C130.113 110.095 130.034 110.178 129.955 110.178C129.797 110.095 129.639 109.928 129.48 109.762C129.718 109.762 129.955 109.679 130.271 109.679Z" fill="#D22730"/>
<path fill-rule="evenodd" clip-rule="evenodd" d="M144.192 111.424C143.955 111.258 143.717 111.175 143.401 111.009C143.401 111.009 143.796 110.178 143.796 110.095C143.955 109.513 144.113 109.014 144.034 108.349C143.638 108.765 143.164 109.181 142.689 109.43C142.452 109.596 141.424 110.178 141.424 110.178C141.424 110.178 139.051 109.181 137.706 108.931C137.943 107.435 138.023 106.438 136.994 103.945C136.52 105.856 136.045 107.186 135.017 108.848C134.701 108.765 134.305 108.765 133.989 108.765C133.831 108.765 133.672 106.521 132.011 104.443C131.537 103.778 130.983 103.197 130.35 102.698C129.797 102.199 129.006 102.698 128.61 103.28C128.373 103.612 128.136 104.693 128.136 104.776C128.136 105.025 128.215 105.191 128.373 105.357C129.243 105.856 129.639 106.604 130.034 107.518C130.192 107.934 130.429 108.516 130.509 108.931C130.271 109.014 129.085 109.097 128.768 109.181C128.452 109.014 128.136 108.599 127.898 108.266C127.503 107.685 127.028 107.103 126.633 106.521C126.554 106.853 126.317 108.017 126.396 108.682C126.475 109.014 126.554 109.347 126.712 109.679C125.605 109.928 124.576 110.261 123.548 110.76C123.39 110.843 122.678 110.427 122.52 110.344C122.125 110.178 121.808 110.012 121.492 109.762C120.859 109.347 120.226 108.931 119.831 108.266C119.831 108.931 119.91 109.513 120.068 110.095C120.305 110.843 120.622 111.508 120.938 112.089C118.486 113.336 111.13 119.569 112.554 130.54C114.531 145.749 131.458 152.398 144.746 144.918C156.056 137.937 158.271 119.735 144.192 111.424ZM136.757 111.175C137.864 111.341 139.13 111.009 140.158 110.593C139.288 110.261 138.655 110.012 137.469 109.679C137.39 109.762 137.469 109.679 136.757 111.175ZM134.226 109.762C134.384 109.596 134.463 109.43 134.621 109.264C134.542 109.264 134.147 109.264 134.147 109.347C134.147 109.43 134.226 109.596 134.226 109.762ZM128.61 104.609C128.689 104.609 130.35 105.607 130.746 108.017C131.22 110.676 129.639 110.843 129.955 112.172C130.429 113.419 134.147 114.084 133.672 110.926C133.277 108.1 132.249 105.773 130.509 103.695C130.429 104.277 129.559 104.776 129.322 104.776C129.164 104.776 130.271 103.945 130.034 103.197C129.955 103.03 129.797 102.947 129.639 103.03C128.689 103.446 128.61 104.526 128.61 104.609ZM130.192 110.095C130.192 110.012 130.271 109.845 130.271 109.679C129.955 109.679 129.718 109.762 129.48 109.762C129.639 109.928 129.797 110.095 129.955 110.178C130.034 110.178 130.113 110.095 130.192 110.095ZM128.373 111.508C128.215 111.424 127.345 110.593 127.107 110.344C126.712 110.51 125.447 110.926 125.051 111.009C126.237 111.258 127.266 111.341 128.373 111.508ZM120.226 109.43L120.464 109.928C121.729 112.671 124.181 114.333 127.345 114.084C127.819 114.001 128.215 113.835 128.689 113.752V113.835C128.294 114.084 127.819 114.666 127.582 114.832C126.396 115.746 126.396 116.494 123.786 117.159C123.469 117.242 123.074 117.325 122.757 117.159C123.786 117.907 125.051 118.24 126.317 118.24C129.718 118.24 130.429 115.746 131.3 115.248C133.119 114.167 136.362 120.816 141.186 117.492C140.554 117.492 140 117.492 139.446 117.325C137.153 116.744 136.441 115.414 134.542 113.585C136.52 113.918 140.079 114.832 142.768 111.175C142.847 110.926 143.006 110.76 143.164 110.51C143.322 110.261 143.48 109.928 143.559 109.679C143.559 109.513 143.638 109.43 143.638 109.264C143.006 109.928 142.215 110.51 141.424 110.843C138.813 112.505 136.441 111.84 135.729 111.674C136.678 110.178 137.469 109.347 136.915 105.441C136.52 107.435 135.729 109.264 134.226 110.593C134.147 110.593 134.305 111.341 134.305 111.508C134.384 113.336 133.751 114.416 130.983 113.668C129.639 113.336 129.243 111.84 129.955 110.427C129.243 110.344 128.61 109.845 128.136 109.347C127.582 108.765 127.266 108.183 126.87 107.518C126.949 108.931 127.424 109.679 127.978 110.427C128.136 110.676 128.294 110.843 128.452 111.092C128.61 111.341 128.848 111.508 129.085 111.674C127.503 111.84 125.921 111.923 124.339 111.674C122.757 111.424 121.254 110.676 120.226 109.43ZM133.198 146.912C138.102 146.912 140.949 145.583 143.796 144.17C150.915 140.014 154.316 130.54 152.892 124.057C151.469 118.738 147.593 114.333 143.006 111.757C142.847 112.006 142.61 112.256 142.452 112.505C141.898 113.087 141.186 113.668 140.475 114.001C139.763 114.333 138.893 114.583 138.102 114.583C137.548 114.666 137.39 114.666 136.994 114.583H136.757C137.943 115.912 139.209 116.827 142.056 116.827C140.949 118.738 138.023 119.985 134.78 118.156C133.989 117.741 133.435 116.993 132.644 116.494C130.825 115.331 130.271 118.821 126.712 119.071C124.814 119.237 123.074 118.406 121.808 116.328C122.757 116.577 123.627 116.577 124.576 116.245C125.367 115.912 126.079 115.164 126.396 114.832C122.915 115.497 121.65 112.505 121.254 112.671C120.78 112.92 120.543 113.17 120.147 113.502C108.441 123.559 113.424 138.685 122.599 144.087C125.842 145.998 129.48 146.912 133.198 146.912Z" fill="#D22730"/>
<path d="M127.107 110.344C127.345 110.593 128.215 111.424 128.373 111.508C127.266 111.341 126.237 111.258 125.051 111.009C125.447 110.926 126.712 110.51 127.107 110.344Z" fill="#D22730"/>
<path d="M141.819 108.931C141.582 108.765 141.345 108.682 141.028 108.516C141.028 108.516 141.424 107.684 141.424 107.601C141.582 107.02 141.74 106.521 141.661 105.856C141.266 106.272 140.791 106.687 140.316 106.936C140.079 107.103 139.051 107.684 139.051 107.684C139.051 107.684 136.678 106.687 135.333 106.438C135.571 104.942 135.65 103.944 134.622 101.451C134.147 103.363 133.672 104.692 132.644 106.355C132.328 106.272 131.932 106.272 131.616 106.272C131.458 106.272 131.3 104.028 129.639 101.95C129.164 101.285 128.61 100.703 127.978 100.205C127.424 99.7059 126.633 100.205 126.238 100.786C126 101.119 125.763 102.199 125.763 102.282C125.763 102.532 125.842 102.698 126 102.864C126.87 103.363 127.266 104.111 127.661 105.025C127.819 105.44 128.057 106.022 128.136 106.438C127.898 106.521 126.712 106.604 126.396 106.687C126.079 106.521 125.763 106.105 125.526 105.773C125.13 105.191 124.656 104.609 124.26 104.028C124.181 104.36 123.944 105.524 124.023 106.188C124.102 106.521 124.181 106.853 124.339 107.186C123.232 107.435 122.204 107.768 121.175 108.266C121.017 108.349 120.305 107.934 120.147 107.851C119.752 107.684 119.435 107.518 119.119 107.269C118.486 106.853 117.853 106.438 117.458 105.773C117.458 106.438 117.537 107.02 117.695 107.601C117.933 108.349 118.249 109.014 118.565 109.596C116.113 110.843 108.758 117.076 110.181 128.046C112.159 143.256 129.085 149.904 142.373 142.424C153.683 135.443 155.898 117.242 141.819 108.931ZM137.785 108.1C136.757 108.516 135.492 108.848 134.384 108.682C135.096 107.186 135.017 107.269 135.096 107.186C136.283 107.518 136.915 107.768 137.785 108.1ZM132.249 106.77C132.091 106.936 132.011 107.103 131.853 107.269C131.853 107.103 131.774 106.936 131.774 106.853C131.774 106.77 132.17 106.77 132.249 106.77ZM128.373 105.524C127.978 103.113 126.317 102.116 126.238 102.116C126.238 102.033 126.317 100.953 127.266 100.537C127.424 100.454 127.582 100.537 127.661 100.703C127.898 101.451 126.791 102.282 126.949 102.282C127.187 102.282 128.057 101.784 128.136 101.202C129.876 103.28 130.904 105.607 131.3 108.432C131.774 111.591 128.057 110.926 127.582 109.679C127.266 108.349 128.848 108.183 128.373 105.524ZM127.898 107.186C127.898 107.352 127.819 107.518 127.819 107.601C127.74 107.601 127.661 107.684 127.582 107.684C127.424 107.601 127.266 107.435 127.108 107.269C127.345 107.269 127.582 107.186 127.898 107.186ZM124.735 107.851C124.972 108.1 125.842 108.931 126 109.014C124.893 108.848 123.865 108.765 122.678 108.516C123.074 108.432 124.339 108.017 124.735 107.851ZM118.091 107.435C118.012 107.269 117.933 107.103 117.853 106.936C118.882 108.183 120.384 108.931 121.966 109.18C123.548 109.43 125.13 109.347 126.712 109.18C126.475 109.014 126.237 108.848 126.079 108.599C125.921 108.349 125.763 108.183 125.605 107.934C125.051 107.186 124.577 106.438 124.497 105.025C124.893 105.69 125.209 106.272 125.763 106.853C126.237 107.352 126.87 107.851 127.582 107.934C126.87 109.347 127.266 110.843 128.61 111.175C131.379 111.923 132.011 110.843 131.932 109.014C131.932 108.848 131.774 108.1 131.853 108.1C133.356 106.77 134.147 104.942 134.542 102.947C135.096 106.853 134.305 107.684 133.356 109.18C134.068 109.347 136.441 110.012 139.051 108.349C139.842 108.017 140.633 107.435 141.266 106.77C141.266 106.936 141.186 107.02 141.186 107.186C141.107 107.435 140.949 107.768 140.791 108.017C140.633 108.266 140.475 108.432 140.395 108.682C137.706 112.339 134.147 111.424 132.17 111.092C134.068 112.92 134.78 114.25 137.073 114.832C137.627 114.998 138.181 114.998 138.814 114.998C133.989 118.323 130.746 111.674 128.927 112.754C128.057 113.253 127.345 115.746 123.944 115.746C122.678 115.746 121.413 115.414 120.384 114.666C120.701 114.832 121.096 114.749 121.413 114.666C124.023 114.001 124.023 113.253 125.209 112.339C125.447 112.172 125.921 111.591 126.317 111.341C126.317 111.341 126.317 111.341 126.317 111.258C125.842 111.341 125.447 111.507 124.972 111.591C121.808 111.84 119.356 110.178 118.091 107.435ZM141.424 141.676C138.576 143.089 135.729 144.419 130.825 144.419C127.108 144.419 123.469 143.505 120.226 141.593C111.051 136.191 106.068 121.065 117.774 111.009C118.17 110.676 118.407 110.427 118.882 110.178C118.407 110.344 118.565 110.344 118.882 110.178C119.277 110.011 120.543 113.003 124.023 112.339C123.706 112.671 122.995 113.419 122.204 113.751C121.255 114.084 120.384 114.084 119.435 113.835C120.701 115.912 122.441 116.743 124.339 116.577C127.898 116.328 128.452 112.837 130.271 114.001C131.062 114.499 131.616 115.247 132.407 115.663C135.65 117.491 138.576 116.245 139.684 114.333C136.836 114.333 135.571 113.419 134.384 112.089C134.463 112.089 134.542 112.089 134.622 112.089C135.017 112.172 135.175 112.172 135.729 112.089C136.52 112.089 137.39 111.84 138.102 111.507C138.814 111.175 139.525 110.593 140.079 110.012C140.237 109.762 140.475 109.513 140.633 109.264C145.22 111.84 149.096 116.245 150.52 121.564C151.943 128.046 148.542 137.521 141.424 141.676Z" fill="#212721"/>
<path d="M130.192 110.178C130.429 110.095 130.667 109.845 130.746 109.679C131.458 108.349 130.509 105.69 129.797 104.277C129.559 103.861 129.322 103.446 129.085 103.113C128.848 102.781 128.531 102.365 128.215 102.116C128.689 102.864 129.006 103.695 129.401 104.526C129.876 105.69 130.825 108.349 130.35 109.43C130.271 109.596 130.192 109.762 130.034 109.845C129.876 109.928 129.718 110.011 129.48 110.011C129.085 110.011 128.689 109.845 128.294 109.679C128.61 109.928 129.006 110.261 129.48 110.344C129.639 110.261 129.955 110.261 130.192 110.178Z" fill="#212721"/>
<path d="M127.978 112.172C126.317 113.585 125.288 114.084 123.232 114.666C124.972 115.331 127.424 114.001 127.978 112.172Z" fill="#212721"/>
<path d="M125.209 110.759C125.763 110.676 126.238 110.593 126.712 110.427C126.158 110.344 125.684 110.261 125.209 110.178L123.786 110.011C123.786 110.011 121.096 109.596 120.859 109.596C121.255 109.928 121.729 110.178 122.204 110.344C123.074 110.676 124.102 110.843 125.209 110.759Z" fill="#212721"/>
<path d="M136.203 115.164C135.413 114.749 134.226 114.25 132.723 113.087C132.407 112.837 132.011 112.505 131.616 112.172C132.17 114.084 134.463 115.497 136.203 115.164Z" fill="#212721"/>
<path d="M135.333 110.926C135.808 110.843 136.361 110.676 136.836 110.427C137.311 110.178 137.706 109.845 138.022 109.43C137.548 109.596 137.073 109.762 136.599 109.845C136.124 110.011 135.65 110.095 135.254 110.178C134.78 110.261 134.305 110.344 133.83 110.344C133.356 110.344 132.881 110.344 132.328 110.427C132.802 110.676 133.277 110.843 133.751 110.926C134.305 111.009 134.78 111.009 135.333 110.926Z" fill="#212721"/>
<path d="M143.164 113.419C143.955 114.333 144.666 115.164 145.299 116.162C151.706 125.719 146.327 133.781 145.378 135.194C142.531 138.768 138.497 141.095 133.91 142.009C132.486 142.341 131.062 142.424 129.638 142.424C126.791 142.424 123.865 141.843 121.175 140.679C128.847 145.749 140.158 143.588 145.616 136.274C145.932 135.859 146.169 135.526 146.486 135.111C151.627 127.88 149.491 116.577 143.164 113.419Z" fill="#212721"/>
<path d="M115.322 132.701C114.69 131.537 114.215 130.374 113.82 129.127C113.424 127.88 113.108 126.55 112.95 125.221C112.08 130.54 115.402 136.773 120.068 138.851C119.119 137.937 116.588 135.111 115.322 132.701Z" fill="#212721"/>
<path d="M132.723 141.095C140.237 140.513 147.198 134.113 146.407 125.47C145.537 131.62 142.373 138.601 132.644 140.264C130.667 140.596 128.531 140.596 126.475 140.264C128.452 141.012 130.667 141.261 132.723 141.095Z" fill="#212721"/>
<path d="M134.305 138.518C138.734 137.853 141.424 134.612 141.898 131.869C141.265 132.867 140.554 133.781 139.763 134.529C138.102 136.025 136.203 137.022 134.147 137.687C133.119 138.02 132.011 138.269 130.904 138.435C132.011 138.684 133.198 138.684 134.305 138.518Z" fill="#212721"/>
<path d="M67.5611 76.5671C67.9256 77.5577 67.9256 77.9227 67.7173 79.4868C67.6653 79.7996 67.6132 80.1124 67.5611 80.4774C67.1966 82.7714 66.8321 85.0654 66.9883 87.4116C67.0404 88.1415 67.6132 92.8339 68.863 92.0518C69.2796 91.7911 69.4879 91.374 69.6962 91.0091C69.8524 90.7484 69.9045 90.4356 69.9045 90.1227C69.9045 89.8099 69.7483 89.6014 69.6962 89.2885C69.4358 88.4543 69.1234 87.3073 69.0713 86.421C69.0192 86.0039 68.6547 83.0842 70.4773 78.5483L70.5294 78.4962C72.1958 78.444 75.4245 78.1312 77.6116 75.1594C77.9241 74.6902 78.1324 74.1688 78.2365 73.5953L78.2365 73.491C80.1633 69.7893 84.4856 58.267 89.8493 51.9584C93.2342 47.9438 98.3376 45.0763 103.128 43.0951C113.804 39.4455 117.918 40.7489 118.803 39.1327C119.793 37.3079 112.138 36.3173 109.742 36.1087C105.68 35.7959 78.8094 34.1275 66.8841 68.4858C66.78 68.7465 66.5196 68.9029 66.4154 69.1115C65.1656 72.5525 67.0924 75.9414 67.5611 76.5671ZM69.6962 89.9663C69.8003 90.1227 69.6441 90.4356 69.592 90.5398C69.4358 90.9048 69.2275 91.2698 68.9151 91.5826C68.863 91.6347 68.863 91.6347 68.8109 91.6347C68.7588 91.6868 68.6547 91.739 68.6026 91.739C68.3422 91.6347 69.2796 90.0706 69.2796 90.0706C69.3837 89.9663 69.592 89.8099 69.6962 89.9663ZM67.6653 68.7465C68.5505 62.855 80.2154 38.507 103.858 36.578C110.836 36.1609 117.762 37.725 118.334 38.8198C118.751 40.3318 99.9519 38.8198 89.2244 51.437C83.2878 58.4755 80.5799 67.7038 78.1845 72.1876L77.4554 73.2825C76.6743 74.5337 73.2373 77.0363 72.3 72.3961C72.0917 71.4055 71.9354 70.2585 71.8833 69.6329C71.8833 69.4243 71.623 69.32 71.4667 69.4765C70.3211 70.6756 66.9883 73.4389 67.6653 68.7465ZM66.5196 70.6756C66.5196 70.4149 66.5717 70.1542 66.6237 69.9457C66.6758 69.685 66.8321 69.3722 66.8321 69.1115C66.8841 75.4722 71.0501 69.9978 71.3626 70.5192C71.9875 72.7611 71.7271 75.0551 73.9143 75.4722C75.4245 75.785 76.3618 74.9508 77.5595 74.1167C76.6743 76.6192 72.8207 77.9748 70.3732 77.7141C69.9045 78.6526 68.0298 81.8851 68.5505 86.3689C68.6547 87.4116 68.9151 88.4544 69.2275 89.4971C68.7068 89.7578 68.3943 90.2791 68.2902 90.8527C68.0819 90.227 66.832 89.08 67.8215 81.468C68.3943 76.3585 68.4985 77.1406 68.9671 77.4013C67.7694 75.6286 66.3113 73.2825 66.5196 70.6756Z" fill="#FFB347"/>
<path d="M67.6653 68.7465C68.5505 62.855 80.2154 38.507 103.858 36.578C110.836 36.1609 117.762 37.725 118.334 38.8198C118.751 40.3318 99.9519 38.8198 89.2244 51.437C83.2878 58.4755 80.5799 67.7038 78.1845 72.1876L77.4554 73.2825C76.6743 74.5337 73.2373 77.0363 72.3 72.3961C72.0917 71.4055 71.9354 70.2585 71.8833 69.6329C71.8833 69.4243 71.623 69.32 71.4667 69.4765C70.3211 70.6756 66.9883 73.4389 67.6653 68.7465Z" fill="#FFB347"/>
<path d="M66.5196 70.6756C66.5196 70.4149 66.5717 70.1542 66.6237 69.9457C66.6758 69.685 66.8321 69.3722 66.8321 69.1115C66.8841 75.4722 71.0501 69.9978 71.3626 70.5192C71.9875 72.7611 71.7271 75.0551 73.9143 75.4722C75.4245 75.785 76.3618 74.9508 77.5595 74.1167C76.6743 76.6192 72.8207 77.9748 70.3732 77.7141C69.9045 78.6526 68.0298 81.8851 68.5505 86.3689C68.6547 87.4116 68.9151 88.4544 69.2275 89.4971C68.7068 89.7578 68.3943 90.2791 68.2902 90.8527C68.0819 90.227 66.832 89.08 67.8215 81.468C68.3943 76.3585 68.4985 77.1406 68.9671 77.4013C67.7694 75.6286 66.3113 73.2825 66.5196 70.6756Z" fill="#FFB347"/>
<path d="M69.6962 89.9663C69.8003 90.1227 69.6441 90.4356 69.592 90.5398C69.4358 90.9048 69.2275 91.2698 68.9151 91.5826C68.863 91.6347 68.863 91.6347 68.8109 91.6347C68.7588 91.6868 68.6547 91.739 68.6026 91.739C68.3422 91.6347 69.2796 90.0706 69.2796 90.0706C69.3837 89.9663 69.592 89.8099 69.6962 89.9663Z" fill="#FFB347"/>
<path d="M69.1234 78.1313C69.4879 79.1219 69.4879 79.4869 69.2796 81.051C69.2275 81.3638 69.1754 81.6766 69.1234 82.0416C68.7588 84.3356 68.3943 86.6296 68.5505 88.9758C68.6026 89.7057 69.1754 94.3981 70.4252 93.616C70.8418 93.3553 71.0501 92.9382 71.2584 92.5733C71.4147 92.3126 71.4667 91.9998 71.4667 91.6869C71.4667 91.3741 71.3105 91.1656 71.2584 90.8527C70.9981 90.0186 70.6856 88.8715 70.6335 87.9852C70.5815 87.5681 70.2169 84.6484 72.0396 80.1125L72.0916 80.0604C73.7581 80.0082 76.9867 79.6954 79.1739 76.7236C79.4863 76.2544 79.6946 75.733 79.7988 75.1595L79.7988 75.0552C81.7256 71.3535 86.0478 59.8312 91.4116 53.5226C94.7965 49.508 99.8998 46.6405 104.691 44.6593C115.366 41.0097 119.48 42.3131 120.365 40.6969C121.355 38.8721 113.7 37.8815 111.304 37.6729C107.242 37.3601 80.3716 35.6917 68.4464 70.05C68.3422 70.3107 68.0819 70.4672 67.9777 70.6757C66.7279 74.1167 68.6547 77.5057 69.1234 78.1313ZM71.2584 91.5305C71.3626 91.6869 71.2064 91.9998 71.1543 92.104C70.9981 92.469 70.7898 92.834 70.4773 93.1468C70.4252 93.1989 70.4252 93.1989 70.3732 93.1989C70.3211 93.2511 70.2169 93.3032 70.1649 93.3032C69.9045 93.1989 70.8418 91.6348 70.8418 91.6348C70.946 91.5305 71.1543 91.3741 71.2584 91.5305ZM69.2275 70.3107C70.1128 64.4192 81.7776 40.0712 105.42 38.1422C112.398 37.7251 119.324 39.2892 119.897 40.3841C120.313 41.896 101.514 40.3841 90.7867 53.0012C84.8501 60.0397 82.1422 69.268 79.7467 73.7518L79.0177 74.8467C78.2365 76.098 74.7996 78.6005 73.8622 73.9603C73.6539 72.9697 73.4977 71.8227 73.4456 71.1971C73.4456 70.9885 73.1852 70.8843 73.029 71.0407C71.8833 72.2398 68.5505 75.0031 69.2275 70.3107ZM68.0819 72.2398C68.0819 71.9791 68.1339 71.7184 68.186 71.5099C68.2381 71.2492 68.3943 70.9364 68.3943 70.6757C68.4464 77.0364 72.6124 71.562 72.9249 72.0834C73.5498 74.3253 73.2894 76.6193 75.4765 77.0364C76.9867 77.3493 77.9241 76.5151 79.1218 75.6809C78.2365 78.1834 74.383 79.539 71.9354 79.2783C71.4667 80.2168 69.592 83.4493 70.1128 87.9331C70.2169 88.9758 70.4773 90.0186 70.7898 91.0613C70.269 91.322 69.9566 91.8434 69.8524 92.4169C69.6441 91.7912 68.3943 90.6442 69.3837 83.0322C69.9566 77.9228 70.0607 78.7048 70.5294 78.9655C69.3317 77.1928 67.8736 74.8467 68.0819 72.2398Z" fill="#212721"/>
<path d="M69.6442 70.78C70.5295 68.9031 72.1438 65.4099 74.1227 61.9688C76.9347 56.9115 80.1634 52.897 82.0381 51.0201C97.8169 35.014 114.533 39.3935 117.241 39.8106C116.616 39.602 115.939 39.3935 115.314 39.2371C97.869 35.5354 82.8192 45.7021 74.1747 60.4569C73.9664 60.8218 73.7581 61.1868 73.4978 61.5518C73.0291 62.3859 71.9876 64.2629 70.8419 67.1304C70.165 68.7988 69.8525 69.998 70.0087 69.633C69.8525 70.0501 69.7484 70.4151 69.6442 70.78Z" fill="#212721"/>
<path d="M83.7043 50.9157C82.2983 52.0627 80.9964 53.4182 79.7987 54.8259C78.601 56.2336 77.5074 57.7456 76.518 59.3097C74.2267 63.0636 72.0395 68.5901 71.6229 70.3628C72.1436 69.1636 75.0078 63.1679 77.1429 59.7268C78.0802 58.1627 79.1217 56.7029 80.2153 55.243C81.3089 53.7311 82.5066 52.3234 83.7043 50.9157Z" fill="#212721"/>
<path d="M95.5254 42.5217C91.4115 44.2422 87.6621 46.8491 84.85 49.4038C91.4115 44.8157 97.8168 40.5926 111.096 39.9149C111.096 39.967 104.17 38.8721 95.5254 42.5217Z" fill="#212721"/>
<path d="M74.9038 64.9407C74.2268 66.3484 73.5498 68.0689 73.3415 69.6331C74.0185 68.1732 76.8826 62.0732 77.7158 60.874C76.6222 62.0211 75.5807 63.5852 74.9038 64.9407Z" fill="#212721"/>
<path d="M79.3821 73.022C84.121 61.604 84.5376 61.8125 86.4644 57.7979C83.4961 61.6561 80.4236 67.704 79.3821 73.022Z" fill="#212721"/>
<path d="M71.7793 74.0124C71.9876 74.7944 72.5083 75.8893 73.1853 76.3064C72.0396 74.4816 72.5083 73.1782 72.4563 72.8132C71.3106 73.7517 70.1649 75.003 69.1234 73.856C68.8631 73.5953 68.7068 73.2303 68.4985 72.8654C68.6027 75.2637 70.3212 75.2115 71.7793 74.0124Z" fill="#212721"/>
<path d="M268.923 77.3648C268.017 76.342 267.027 75.3825 266.1 74.5066L265.636 74.0686C263.066 71.5446 260.729 69.5016 258.268 67.8157C256.437 66.441 253.703 64.5678 251.578 63.1527C250.639 63.9959 249.95 64.6492 249.115 65.2822L248.928 65.5557C247.971 67.0698 247.034 68.4372 246.434 70.0753C246.457 70.4526 246.627 70.8501 246.65 71.2273C247.118 72.7135 247.858 73.8629 249.121 75.0097L249.101 75.1565C249.101 75.1565 249.017 75.2199 248.954 75.1363C247.673 74.6605 246.45 73.2199 245.961 71.8806C245.877 71.9439 245.877 71.9439 245.857 72.0908C245.693 72.7415 245.591 73.4758 245.407 74.2733C245.265 75.3013 244.976 76.309 244.688 77.3167C244.688 77.3167 244.604 77.38 244.521 77.4433L244.394 77.2762C244.43 75.9343 244.528 74.676 244.774 73.4379C244.586 73.7113 244.336 73.9012 244.148 74.1747C243.71 74.6381 243.419 75.1217 243.128 75.6053C242.753 76.1523 242.379 76.6992 241.921 77.3094C241.921 77.3094 241.837 77.3727 241.754 77.436L241.627 77.2689C242.019 76.051 242.685 75.0205 243.414 74.0735L243.685 73.7367C244.143 73.1265 244.601 72.5163 245.039 72.0529C245.616 70.0375 246.404 68.1258 247.464 66.4015L246.963 66.7813L246.879 66.8446C246.879 66.8446 246.859 66.9915 246.776 67.0548L245.502 68.1512C243.206 70.1542 240.368 72.8307 237.928 75.3375C236.221 77.9455 235.085 81.3054 235.098 83.9259C235.098 83.9259 235.078 84.0728 235.014 83.9892C235.014 83.9892 234.868 83.969 234.951 83.9057C234.607 82.0625 234.93 79.7129 235.718 77.8012C233.925 79.9485 232.594 82.0095 231.556 84.1111C231.556 84.1111 231.472 84.1744 231.389 84.2377L231.262 84.0707C232.064 80.964 234.525 78.3103 236.631 76.0567C236.464 76.1833 236.15 76.2897 235.9 76.4796C235.649 76.6695 235.335 76.7759 235.085 76.9658C233.768 77.8318 232.495 78.9283 231.305 79.9614L230.7 80.5514C230.7 80.5514 230.616 80.6147 230.553 80.5312C230.553 80.5312 230.49 80.4476 230.426 80.3641L230.446 80.2172C231.801 78.5334 233.555 77.2039 235.31 75.8745C236.229 75.1781 237.148 74.4818 237.983 73.8487C239.591 72.4991 241.302 70.9393 243.431 69.0629C243.181 69.2528 242.867 69.3592 242.7 69.4858C241.738 69.9518 240.796 70.2709 239.77 70.6533C239.059 70.9294 238.284 71.1219 237.636 71.4815C235.963 72.2235 234.269 73.1124 232.722 74.0215C232.221 74.4013 231.719 74.7811 231.281 75.2445C230.446 75.8776 229.611 76.5106 228.838 77.2272C227.899 78.0705 227.38 79.1212 226.715 80.1518C226.112 81.2659 225.363 82.3597 224.423 83.2029C224.423 83.2029 224.34 83.2662 224.277 83.1827L224.213 83.0991L224.234 82.9523C224.942 82.1521 225.525 81.1849 226.023 80.281C226.418 79.5872 226.897 78.8301 227.355 78.2199C226.416 79.0631 225.56 79.843 224.704 80.6229C223.765 81.4661 222.826 82.3094 221.97 83.0893C221.97 83.0893 221.887 83.1526 221.74 83.1323C221.74 83.1323 221.676 83.0488 221.613 82.9652L221.633 82.8184C223.97 80.5217 226.286 78.3719 228.583 76.369C229.084 75.9891 229.438 75.5891 229.94 75.2092C230.524 74.7661 231.046 74.2394 231.631 73.7963C231.714 73.7329 233.365 72.6137 234.494 72.0211C234.347 72.0009 234.18 72.1275 234.097 72.1908C233.866 72.2338 233.699 72.3605 233.636 72.2769C233.405 72.32 233.175 72.363 232.861 72.4694C232.547 72.5758 232.233 72.6822 231.856 72.705C231.395 72.7911 230.934 72.8773 230.327 72.9432C229.636 73.0724 228.881 73.118 228.17 73.394C225.678 74.0982 223.504 75.22 221.729 76.6963C221.04 77.3496 220.268 78.0662 219.643 78.803C218.329 80.1932 217.015 81.5833 215.405 82.4089L215.258 82.3886C215.195 82.3051 215.278 82.2418 215.278 82.2418C217.22 80.6389 219.035 78.8689 220.66 76.8483L212.762 82.0446C212.678 82.1079 212.678 82.1079 212.615 82.0243C212.551 81.9408 212.635 81.8775 212.635 81.8775C216.037 78.9047 219.673 76.4129 223.752 74.506C217.68 76.2131 212.746 78.9 209.159 82.6703C209.075 82.7336 209.075 82.7336 209.012 82.6501C208.949 82.5665 209.032 82.5033 209.032 82.5033C210.407 80.6726 212.683 78.8165 214.564 77.6541C212.931 78.1024 210.88 78.8673 209.353 79.6295C209.27 79.6929 209.207 79.6093 209.207 79.6093C209.143 79.5257 209.227 79.4624 209.227 79.4624C211.169 77.8596 213.597 77.0719 215.794 76.3273C216.652 76.0715 217.364 75.7954 218.222 75.5396C221.278 74.5392 224.334 73.5388 227.496 72.8523C227.58 72.789 227.726 72.8092 227.81 72.7459C227.516 72.7055 227.223 72.665 226.929 72.6245C225.984 72.4195 225.02 72.3614 224.139 72.24C221.559 71.9592 219.462 71.9695 217.513 72.0001C217.513 72.0001 217.366 71.9799 217.386 71.833L217.406 71.6862L217.49 71.6229L217.72 71.5798C219.607 71.4657 221.576 71.2882 223.589 71.3412C223.232 71.2172 222.875 71.0931 222.581 71.0527C221.657 70.7008 220.713 70.4958 219.769 70.2909C219.265 70.1466 218.761 70.0023 218.173 69.9214L218.11 69.8378L218.13 69.691L218.214 69.6277C220.417 69.9313 222.432 70.5083 224.364 71.1487C224.868 71.2929 225.288 71.5005 225.729 71.5612C227.364 71.637 228.813 71.9863 229.947 72.4419L231.099 72.2265C233.864 71.7097 236.775 71.2132 239.454 70.2356C240.877 69.6835 242.55 68.9415 244.097 68.0324C243.343 68.078 242.588 68.1237 241.917 68.106C239.904 68.0531 237.912 67.8533 236.213 67.6939L236.066 67.6737C235.479 67.5927 234.744 67.4916 234.073 67.4739L233.843 67.517C233.613 67.56 233.402 67.4563 233.172 67.4993C232.795 67.5222 232.461 67.7754 232.063 67.945C231.896 68.0717 231.582 68.178 231.352 68.2211C230.64 68.4971 229.929 68.7732 229.238 68.9024C228.463 69.0949 227.605 69.3507 226.637 68.7685L226.658 68.6216L226.741 68.5583C227.979 68.8038 229.402 68.2517 230.741 67.7629C230.825 67.6996 230.972 67.7198 231.055 67.6565C231.055 67.6565 230.972 67.7198 230.908 67.6363C229.526 67.8947 228.227 68.0898 226.885 68.0545C226.885 68.0545 226.739 68.0342 226.759 67.8874L226.779 67.7405L226.863 67.6772C228.078 67.5454 229.23 67.3301 230.318 67.0312C230.779 66.9451 231.24 66.8589 231.784 66.7095C232.015 66.6664 232.245 66.6234 232.476 66.5803C230.88 66.2108 229.349 65.9249 227.713 65.8491C227.273 65.7884 226.748 65.791 226.288 65.8771C224.862 65.9051 223.416 66.08 222.3 64.9534L222.32 64.8065C222.32 64.8065 222.404 64.7433 222.467 64.8268C223.728 65.4495 225.09 65.338 226.515 65.31C226.662 65.3302 226.809 65.3504 226.893 65.2871C226.683 65.1833 226.326 65.0593 226.115 64.9555C225.612 64.8113 225.108 64.667 224.604 64.5227C224.247 64.3987 223.953 64.3582 223.596 64.2342L223.533 64.1507L223.553 64.0038L223.637 63.9405C225.062 63.9125 227.181 64.2794 228.465 65.2793C230.164 65.4387 231.926 65.6815 233.521 66.051C233.962 66.1117 234.319 66.2358 234.759 66.2965L234.129 65.9852C232.721 65.3422 231.313 64.6992 230.03 63.6993L229.966 63.6157C229.903 63.5322 229.986 63.4689 230.07 63.4056L230.217 63.4258C231.794 64.4663 233.643 65.1699 235.428 65.7901C236.205 66.1217 237.066 66.3899 237.843 66.7215C238.577 66.8227 239.248 66.8404 239.983 66.9416L240.507 66.939C241.178 66.9566 241.765 67.0376 242.436 67.0553C241.639 66.8705 240.924 66.6225 240.084 66.2073C239.243 65.7922 238.403 65.377 237.645 64.8986C237.645 64.8986 237.562 64.9619 237.499 64.8784C234.919 64.5976 232.835 62.8888 231.635 61.8255L231.655 61.6787L231.802 61.6989C232.959 62.5318 234.073 63.1343 235.354 63.6101C233.987 62.6735 232.85 61.6938 231.86 60.7343L231.88 60.5874C231.88 60.5874 231.964 60.5241 232.027 60.6077C233.141 61.2101 234.382 61.9797 235.539 62.8126C237.243 64.0201 239.03 65.1643 240.942 65.9515C240.626 65.5338 240.309 65.116 239.993 64.6983L239.929 64.6148C238.81 62.9641 237.627 61.2299 236.05 60.1895L236.07 60.0426C236.07 60.0426 236.154 59.9793 236.217 60.0629C237.541 60.7691 238.468 61.6451 239.438 62.7514C239.754 63.1691 240.071 63.5868 240.324 63.921C240.937 64.9033 241.697 65.9058 242.664 66.4881C244.049 66.7538 245.327 66.7055 246.5 66.3434C247.168 65.8369 248.902 64.6543 250.614 63.0945C248.216 61.4921 245.944 60.0568 243.863 58.8721C240.668 57.0849 237.115 55.1737 232.975 53.1816C231.861 52.5791 229.808 52.8199 228.469 53.3087C227.988 53.5416 227.443 53.6911 227.109 53.9443C226.608 54.3241 226.129 55.0812 225.818 55.7117C225.423 56.4055 225.238 57.203 224.97 58.0639L224.742 58.631C224.515 59.1982 224.454 59.6388 224.079 60.1857C223.684 60.8795 223.143 61.553 222.601 62.2265L222.474 62.0594C222.745 61.7227 222.953 61.3024 223.16 60.882C223.284 60.525 223.472 60.2516 223.659 59.9781C224.054 59.2843 224.322 58.4235 224.444 57.5424C224.588 57.0385 224.732 56.5347 224.876 56.0308C224.418 56.641 223.96 57.2512 223.565 57.945L223.378 58.2185C223.087 58.7021 222.859 59.2693 222.631 59.8364C222.32 60.4669 222.155 61.1176 221.697 61.7279C221.51 62.0013 221.239 62.3381 220.988 62.528C220.821 62.6546 220.717 62.8648 220.55 62.9914C220.092 63.6016 219.507 64.0448 219.006 64.4246C219.006 64.4246 218.922 64.4879 218.859 64.4044L218.796 64.3208L218.816 64.174C219.712 63.1003 221.13 61.5 221.813 59.7985C221.917 59.5884 221.957 59.2947 222.061 59.0845C222.081 58.9377 222.185 58.7275 222.205 58.5807C221.935 58.9174 221.664 59.2542 221.393 59.591C220.727 60.6215 220.125 61.7356 219.522 62.8497L219.439 62.913L219.375 62.8295C219.497 61.9484 219.661 61.2977 220.056 60.6039C220.264 60.1836 220.618 59.7835 220.889 59.4467C221.076 59.1732 221.347 58.8365 221.535 58.563C222.284 57.4692 223.096 56.4589 223.952 55.679C224.701 54.5851 225.641 53.7419 226.539 53.1924C226.393 53.1721 226.309 53.2354 226.162 53.2152C225.932 53.2583 225.701 53.3013 225.471 53.3444C224.927 53.4938 224.152 53.6864 223.587 53.9826C221.81 54.9348 220.306 56.0743 219.139 57.4847C217.972 58.8951 217.225 60.513 216.691 62.7589C216.567 63.1159 216.507 63.5564 216.466 63.8501C216.221 65.0882 215.996 66.1795 215.31 67.3569L215.226 67.4202L215.099 67.2531C215.284 66.4556 215.469 65.658 215.654 64.8604C215.838 64.0629 216.043 63.1185 216.228 62.3209C216.021 62.7412 214.962 64.9896 214.962 64.9896C213.78 67.595 212.391 70.6208 209.608 71.8085C209.608 71.8085 209.525 71.8718 209.461 71.7883L209.398 71.7048C209.398 71.7048 209.418 71.5579 209.502 71.4946C211.927 70.1828 213.276 67.4508 214.583 64.4884C213.603 65.6253 212.664 66.4685 211.702 66.9345C211.702 66.9345 211.618 66.9978 211.555 66.9142L211.491 66.8307L211.512 66.6838C213.934 64.848 215.6 62.5336 216.656 59.7611C217.757 57.7431 219.111 56.0592 220.699 54.8564C219.569 55.449 218.44 56.0416 217.207 56.8443C216.873 57.0976 216.476 57.2672 216.225 57.4572C214.952 58.5536 214.015 59.9209 212.911 61.4148L212.724 61.6883C212.162 62.5087 211.683 63.2658 211.058 64.0026C209.413 66.1701 207.722 67.583 205.651 68.4947C205.567 68.558 205.504 68.4745 205.504 68.4745C205.44 68.391 205.524 68.3276 205.524 68.3276C206.924 67.3983 208.281 66.2385 209.615 64.7016C208.613 65.4612 207.4 66.1171 206.04 66.7528C206.04 66.7528 205.957 66.8161 205.893 66.7325L205.83 66.649L205.85 66.5021C208.212 65.1068 210.195 63.2102 212.01 61.4403C212.197 61.1668 212.301 60.9566 212.488 60.6832C212.863 60.1362 213.238 59.5893 213.612 59.0424L213.362 59.2323C211.377 60.6048 209.392 61.9773 207.217 63.0991C206.82 63.2688 206.569 63.4587 206.255 63.5651C205.007 65.5629 202.708 67.0417 200.027 67.4952C200.027 67.4952 199.88 67.475 199.817 67.3914C199.754 67.3079 199.837 67.2446 199.921 67.1813C201.721 66.6064 203.268 65.6973 204.832 64.1172C202.217 65.1783 199.285 65.8218 196.477 66.1082C196.477 66.1082 196.33 66.0879 196.267 66.0043C196.267 66.0043 196.287 65.8575 196.371 65.7942C197.146 65.6017 197.92 65.4092 198.695 65.2167C199.303 65.1508 199.931 64.938 200.475 64.7886C200.181 64.7481 199.888 64.7077 199.677 64.6039C198.293 64.3382 196.971 64.156 195.588 64.4144C195.505 64.4777 195.442 64.3942 195.378 64.3106C195.378 64.3106 195.399 64.1638 195.482 64.1005C196.34 63.8447 197.158 63.8826 198.123 63.9407C198.417 63.9812 198.71 64.0216 199.004 64.0621C199.885 64.1836 200.786 64.1581 201.647 64.4264C202.025 64.4036 202.422 64.2339 202.819 64.0643C204.87 63.2994 206.898 62.1573 208.612 61.1216C208.696 61.0583 208.696 61.0583 208.779 60.995C208.549 61.0381 208.235 61.1444 207.941 61.1039C207.103 61.2129 206.349 61.2585 205.698 61.094C205.257 61.0333 204.9 60.9093 204.543 60.7853C203.976 60.5575 203.325 60.393 202.718 60.4589L202.508 60.3551L202.528 60.2082L202.611 60.1449C203.386 59.9524 204.184 60.1372 204.898 60.3852C205.402 60.5295 205.989 60.6104 206.576 60.6914C209.344 60.6987 211.225 59.5364 214.025 57.6777C215.425 56.7483 217.139 55.7126 219.167 54.5705C219.731 54.2742 220.296 53.9779 220.924 53.7652C219.374 54.1502 217.972 54.5555 216.339 55.0038L216.255 55.0671C215.253 55.8267 213.913 56.3155 212.658 56.741C212.344 56.8474 211.946 57.0171 211.632 57.1234C209.979 57.7186 208.409 58.2505 206.546 58.7419C206.546 58.7419 206.399 58.7216 206.336 58.6381C206.336 58.6381 206.356 58.4912 206.439 58.4279C208.49 57.6631 210.457 56.9615 212.445 56.1131C209.136 56.7794 206.515 56.7923 204.393 55.9013L204.33 55.8178L204.35 55.6709L204.434 55.6076C207.014 55.8884 209.341 55.835 211.875 55.3612C210.637 55.1158 209.292 54.5564 208.345 53.8273C208.282 53.7437 208.282 53.7437 208.366 53.6804C208.366 53.6804 208.449 53.6171 208.513 53.7007C210.214 54.3841 212.209 55.108 214.179 54.9306C214.87 54.8014 215.582 54.5253 216.21 54.3126C216.607 54.1429 217.068 54.0568 217.465 53.8871L218.01 53.7377C217.799 53.6339 217.653 53.6136 217.442 53.5098C217.232 53.4061 217.085 53.3858 216.875 53.282C216.371 53.1378 215.888 52.8467 215.384 52.7024C214.964 52.4948 214.607 52.3708 214.186 52.1632L214.123 52.0797L214.207 52.0164C215.088 52.1378 215.969 52.2592 216.893 52.6111C217.04 52.6313 217.25 52.7351 217.397 52.7553C217.964 52.9832 218.551 53.0641 218.951 53.4185C222.154 52.4383 228.671 51.8401 228.671 51.8401C228.755 51.7768 229.048 51.8173 229.279 51.7742C229.426 51.7945 229.509 51.7312 229.656 51.7514L228.879 51.4198C225.916 50.1137 222.954 48.8076 220.098 47.8154C211.426 45.049 209.332 45.5834 206.653 46.561C204.772 47.7233 203.524 49.7211 202.129 51.6986C201.859 52.0354 201.568 52.519 201.38 52.7925C201.469 53.7774 200.95 54.8282 200.598 55.7523L200.474 56.1094C200.122 57.0335 199.603 58.0843 198.874 59.0313L198.791 59.0946L198.664 58.9275C198.808 58.4236 199.099 57.94 199.307 57.5197C199.535 56.9526 199.763 56.3854 199.99 55.8182C200.115 55.4612 200.239 55.1042 200.363 54.7472C200.383 54.6004 200.487 54.3902 200.507 54.2433C200.236 54.5801 200.049 54.8536 199.798 55.0435C197.504 57.5705 194.704 59.4292 190.479 61.3159L190.332 61.2957C190.269 61.2122 190.352 61.1489 190.352 61.1489C191.291 60.3056 192.421 59.7131 193.466 59.1838C194.345 58.7811 195.16 58.2949 195.912 57.7251C195.995 57.6618 196.079 57.5985 196.246 57.4719C194.78 57.7936 193 58.2217 191.16 59.0904C191.16 59.0904 191.076 59.1537 191.013 59.0701L190.95 58.9866L190.97 58.8397C192.955 57.4672 195.236 56.6593 197.102 56.692C198.375 55.5956 199.605 54.2688 200.876 52.6482C201.251 52.1013 201.709 51.4911 202.104 50.7973C202.666 49.9769 203.165 49.073 203.79 48.3361C202.494 49.0553 201.241 50.0049 200.008 50.8076C199.256 51.3774 198.441 51.8636 197.625 52.3498C195.41 53.7654 192.651 55.3303 189.886 55.8471C189.491 56.5409 188.529 57.0069 187.754 57.1994C186.582 57.5616 185.367 57.6934 183.878 57.6378C183.878 57.6378 183.731 57.6176 183.815 57.5543L183.835 57.4074L183.918 57.3441C184.903 57.2554 185.992 56.9565 187.081 56.6576C187.625 56.5082 188.022 56.3386 188.357 56.0853C185.779 56.3287 183.323 55.6909 181.224 55.1771L181.161 55.0936C181.181 54.9467 181.181 54.9467 181.328 54.967C184.789 55.3692 188.481 55.7283 192.185 54.3683C192.268 54.305 192.415 54.3252 192.582 54.1986C192.225 54.0746 191.848 54.0974 191.491 53.9734C191.134 53.8494 190.63 53.7051 190.253 53.7279C189.372 53.6065 188.323 53.6117 187.359 53.5536C186.981 53.5764 186.541 53.5157 186.247 53.4752L186.184 53.3916C186.184 53.3916 186.121 53.3081 186.204 53.2448L186.288 53.1815C187.733 53.0066 188.865 52.9381 189.977 53.0165C190.794 53.0544 191.592 53.2391 192.39 53.4239C192.893 53.5681 193.334 53.6289 193.838 53.7731C195.992 52.7981 197.894 51.4889 199.795 50.1798L201.362 49.1238C199.934 48.6277 198.425 48.719 197.063 48.8306C196.438 49.5674 195.202 49.846 194.427 50.0386C193.339 50.3374 192.207 50.4059 191.032 50.244L190.969 50.1605L190.989 50.0136L191.073 49.9503C192.121 49.9451 193.189 49.7931 194.194 49.5575C194.739 49.4081 195.22 49.1751 195.617 49.0054C193.564 49.2462 191.364 49.4667 189.369 48.7428C189.369 48.7428 189.305 48.6592 189.242 48.5757C189.179 48.4921 189.262 48.4288 189.262 48.4288C189.262 48.4288 189.429 48.3022 189.493 48.3858C192.052 48.8134 194.483 48.5498 197.144 48.2431L198.359 48.1114C198.022 47.8405 197.602 47.6329 197.118 47.3418C196.761 47.2178 196.404 47.0938 195.964 47.0331C195.607 46.909 195.313 46.8685 194.956 46.7445L194.893 46.661L194.913 46.5141L194.997 46.4508C196.295 46.2557 198.478 46.7062 199.281 47.9391C200.182 47.9137 201.23 47.9085 202.114 48.554C204.079 47.3284 206.357 45.9964 208.828 45.4391C208.912 45.3758 209.059 45.3961 209.059 45.3961C207.82 45.1506 206.749 44.7785 205.825 44.4267C203.703 43.5357 201.645 42.7282 197.397 44.2377C197.313 44.301 197.376 44.3846 197.23 44.3643C196.518 44.6404 195.933 45.0835 195.202 45.5064C194.47 45.9293 193.655 46.4155 192.86 46.7549C191.604 47.1804 190.285 47.5223 188.776 47.6136C188.776 47.6136 188.629 47.5934 188.649 47.4465L188.67 47.2997L188.753 47.2364C190.429 47.0185 191.915 46.5499 193.442 45.7876L193.526 45.7243C192.457 45.8764 191.346 45.798 190.548 45.6132C190.548 45.6132 190.485 45.5297 190.421 45.4461C190.358 45.3626 190.442 45.2993 190.442 45.2993C190.442 45.2993 190.525 45.236 190.609 45.1727C192.181 45.1649 193.753 45.1572 195.26 44.5418C195.824 44.2455 196.305 44.0125 196.766 43.9264C197.561 43.587 198.44 43.1843 199.361 43.0121C199.906 42.8626 200.303 42.693 200.68 42.6701C198.791 42.2602 196.819 41.9135 195.12 41.7542C194.386 41.653 193.652 41.5518 192.917 41.4506C192.583 41.7038 191.327 42.1293 189.401 42.5371C189.132 43.398 188.32 44.4083 187.505 44.8945C186.753 45.4643 185.894 45.7201 184.993 45.7455C184.993 45.7455 184.846 45.7253 184.783 45.6417C184.72 45.5582 184.74 45.4113 184.887 45.4316C185.975 45.1327 186.791 44.6465 187.416 43.9096C187.667 43.7197 187.854 43.4463 187.958 43.2361C188.061 43.0259 188.229 42.8993 188.416 42.6258C184.75 43.1681 181.185 42.976 178.245 42.0472L178.182 41.9636C178.119 41.8801 178.202 41.8167 178.202 41.8167L178.286 41.7534C183.279 42.4416 187.261 42.3171 191.135 41.3546C190.023 41.2762 188.996 41.1345 187.947 41.1397C184.319 40.8641 180.544 40.5683 176.913 39.7686L176.85 39.685L176.87 39.5382L176.954 39.4749C178.065 39.5533 179.177 39.6316 180.352 39.7935C182.491 40.0136 184.504 40.0665 186.517 40.1195C185.486 39.4537 184.372 38.8513 183.321 38.3323C182.901 38.1248 182.397 37.9805 181.977 37.7729C181.263 37.5249 180.696 37.2971 180.065 36.9857L180.002 36.9022L180.022 36.7553L180.106 36.692C182.789 36.7626 185.901 38.6131 187.712 40.1346L187.775 40.2181C190.292 40.4153 192.662 40.5923 195.075 40.9997C194.611 40.5617 194.064 40.1871 193.664 39.8326C193.1 40.1289 192.175 39.7771 191.608 39.5493C191.398 39.4455 191.251 39.4253 191.104 39.405C189.887 39.0127 188.752 38.5571 187.658 37.8078C187.658 37.8078 187.658 37.8078 187.595 37.7242C187.595 37.7242 187.595 37.7242 187.615 37.5774C187.699 37.5141 187.699 37.5141 187.762 37.5976C189.066 38.4507 191.082 39.0278 192.78 39.1871C190.866 37.8758 188.785 36.6911 186.453 35.6963L186.39 35.6128C186.326 35.5292 186.41 35.4659 186.41 35.4659C186.41 35.4659 186.493 35.4026 186.64 35.4229C190.231 36.5162 193.489 38.387 196.396 41.1818L196.46 41.2654C198.662 41.569 201.075 41.9764 203.237 42.5736C204.245 42.8622 205.169 43.214 206.03 43.4823C206.597 43.7101 207.311 43.9581 207.962 44.1226C206.364 43.2291 204.87 42.1253 203.44 41.1051C202.219 40.1887 200.999 39.2723 199.758 38.5027C199.611 38.4825 199.485 38.3154 199.338 38.2952C197.892 38.47 196.53 38.5816 195.249 38.1057C193.611 37.5059 192.013 36.6123 190.709 35.7592L190.729 35.6123L190.813 35.549C191.821 35.8375 192.808 36.2729 193.879 36.645C194.299 36.8526 194.656 36.9766 195.077 37.1842C196.001 37.536 196.965 37.5941 198.014 37.5889C197.173 37.1738 196.186 36.7384 195.345 36.3233C192.95 35.245 190.408 34.1464 188.448 32.0806L188.468 31.9337C188.468 31.9337 188.551 31.8704 188.615 31.954C190.466 33.1817 192.567 34.2196 194.542 35.0903L194.963 35.2979C194.519 34.7131 194.076 34.1283 193.403 33.5865C193.129 33.3992 192.792 33.1283 192.603 32.8777C191.992 32.4195 191.319 31.8777 190.812 31.2094L190.833 31.0625C190.833 31.0625 190.916 30.9992 190.979 31.0828C192.304 31.789 193.441 32.7687 194.641 33.832C195.251 34.2902 195.904 34.9788 196.097 35.7535L196.16 35.8371C197.358 36.3762 198.682 37.0825 199.986 37.9356C200.049 38.0191 200.196 38.0394 200.26 38.1229L199.794 37.1609C199.052 35.4874 198.31 33.8139 197.547 32.2872C195.005 31.1887 192.63 29.9635 191.402 27.4748L191.422 27.328L191.569 27.3482L192.159 27.9532C193.086 28.8292 193.866 29.6848 194.896 30.3506C195.443 30.7253 196.157 30.9733 196.788 31.2847L196.934 31.3049C196.468 30.3429 196.129 29.5479 195.559 28.796L195.306 28.4618C194.61 27.5428 194.124 26.7276 192.987 25.7479L193.007 25.601C193.007 25.601 193.09 25.5377 193.154 25.6213C194.878 26.6819 196.438 28.3933 197.666 30.882C198.026 31.5301 198.238 32.158 198.598 32.8062C198.618 32.6593 198.639 32.5125 198.659 32.3656C198.719 31.9251 198.78 31.4845 198.841 31.044C198.876 29.7021 198.828 28.4235 198.633 27.1246C198.57 27.0411 198.653 26.9778 198.737 26.9145C198.737 26.9145 198.884 26.9347 198.947 27.0183C199.352 28.4209 199.484 29.6362 199.469 30.8312L199.449 30.9781C199.474 31.8794 199.459 33.0745 199.044 33.9151C199.849 35.6721 200.444 37.3254 200.913 38.8115C203.458 40.4342 205.288 41.8088 206.592 42.6619C210.357 45.201 210.357 45.201 211.385 45.3426C212.497 45.421 214.72 45.5778 223.058 48.5974C222.741 48.1797 222.508 47.6986 222.065 47.1138C221.029 45.3998 219.55 43.1011 217.109 41.2683C217.109 41.2683 217.026 41.3315 216.963 41.248C216.312 41.0835 215.725 41.0026 215.137 40.9216C214.76 40.9444 214.403 40.8204 213.962 40.7597C212.871 40.5344 211.506 40.1219 210.245 39.4992L210.182 39.4157L210.202 39.2688L210.286 39.2055C210.873 39.2865 211.44 39.5143 212.091 39.6788C212.952 39.9471 213.813 40.2153 214.631 40.2532L214.924 40.2937C215.218 40.3342 215.448 40.2911 215.742 40.3316C215.322 40.124 214.922 39.7696 214.501 39.5621C213.955 39.1874 213.408 38.8127 212.861 38.4381C212.377 38.1469 211.977 37.7925 211.64 37.5217C209.673 38.2232 206.63 37.5045 205.05 35.9399L205.07 35.7931C205.07 35.7931 205.153 35.7298 205.217 35.8133C205.427 35.9171 205.784 36.0412 205.994 36.1449C206.624 36.4563 207.338 36.7043 208.052 36.9524C208.85 37.1371 209.521 37.1548 210.276 37.1091C210.506 37.066 210.716 37.1698 210.946 37.1267L210.883 37.0432C209.369 36.0863 207.792 35.0459 206.401 33.732L206.422 33.5851C206.422 33.5851 206.505 33.5218 206.568 33.6054C208.46 34.5394 210.164 35.747 211.868 36.9545C212.268 37.3089 212.688 37.5165 213.089 37.8709C212.496 36.7417 211.653 35.8025 210.81 34.8633C210.22 34.2582 209.776 33.6734 209.207 32.9215L209.227 32.7746L209.374 32.7949C211.331 34.3366 213.205 35.9416 213.929 38.286L213.972 38.5164C214.182 38.6202 214.309 38.7873 214.582 38.9746C214.919 39.2455 215.34 39.4531 215.613 39.6404C216.433 40.2024 217.274 40.6175 218.011 41.2428C217.398 40.2605 216.869 39.2149 216.256 38.2326C215.473 36.8528 214.774 35.4097 213.949 33.7995C213.865 33.8629 213.802 33.7793 213.802 33.7793C211.574 32.5744 209.297 30.0909 208.216 27.6224C208.153 27.5388 208.236 27.4755 208.32 27.4122C208.32 27.4122 208.467 27.4325 208.53 27.516C208.72 27.7666 208.973 28.1008 209.163 28.3515C209.733 29.1034 210.156 29.835 210.809 30.5236C211.526 31.2958 212.346 31.8578 213.146 32.5666C213.209 32.6502 213.42 32.754 213.483 32.8375C213.42 32.754 213.42 32.7539 213.42 32.7539C213.144 32.0425 212.445 30.5994 211.553 28.3816C210.768 26.4777 208.98 25.3335 207.256 24.2728C206.919 24.0019 206.499 23.7944 206.162 23.5235L206.099 23.44C206.036 23.3564 206.119 23.2931 206.203 23.2298C206.203 23.2298 206.286 23.1665 206.35 23.25C207.547 23.7892 209.082 24.5992 210.262 25.8093C209.565 24.8903 208.932 24.0549 208.152 23.1992C207.372 22.3435 206.592 21.4878 205.916 20.422L205.937 20.2751L206.083 20.2954C209.638 22.7307 211.396 26.265 213.05 30.0094C213.171 29.1283 212.979 28.3536 212.743 27.3485L212.637 27.0345C212.444 26.2598 212.021 25.5281 211.745 24.8167C211.449 24.2521 211.3 23.7078 211.087 23.0799L211.107 22.9331L211.254 22.9533C212.203 24.2065 212.799 25.8597 213.33 27.4294L213.437 27.7434C213.842 29.146 213.911 30.2777 213.559 31.2019L213.685 31.369C214.364 32.9589 215.043 34.5489 215.889 36.0122C216.904 37.873 218.153 40.2149 219.695 42.5972C219.715 42.4504 219.672 42.22 219.609 42.1364C219.348 40.2299 219.317 38.2804 219.266 36.4777C219.238 35.0523 219.294 33.5635 219.329 32.2216C218.592 31.5963 218.043 30.6976 217.45 29.5684C217.323 29.4013 217.28 29.1709 217.237 28.9405C217.151 28.4798 217.065 28.019 216.895 27.6215C216.809 27.1607 216.786 26.7834 216.617 26.3859C216.574 26.1555 216.51 26.072 216.467 25.8416L216.487 25.6947L216.634 25.715C216.824 25.9656 216.931 26.2795 217.037 26.5935C217.143 26.9074 217.186 27.1379 217.209 27.5151C217.316 27.829 217.275 28.1227 217.382 28.4367C217.445 28.5202 217.488 28.7506 217.551 28.8342C217.87 29.776 218.587 30.5481 219.093 31.2165L219.068 30.3151C219.065 29.791 219.063 29.267 219.144 28.6796C219.22 27.044 219.295 25.4083 218.974 23.9424C218.931 23.712 218.824 23.3981 218.698 23.231C218.698 23.231 218.718 23.0842 218.801 23.0208L218.948 23.0411C219.118 23.4386 219.351 23.9196 219.5 24.464C219.992 26.3274 219.919 28.487 219.845 30.6467C219.828 31.3177 219.726 32.052 219.792 32.6596C219.775 33.3305 219.841 33.9382 219.76 34.5256C220.362 33.4115 220.881 32.3607 221.21 31.0593C221.663 29.4009 221.572 27.8919 221.417 26.2993L221.458 26.0056L221.561 25.7955C221.561 25.7955 221.708 25.8157 221.772 25.8993C221.835 25.9828 221.815 26.1297 221.941 26.2967C222.795 29.3324 221.934 33.4037 219.891 35.7409C219.859 37.6069 219.869 39.7033 220.193 41.6933C220.295 40.959 220.543 40.245 220.938 39.5512C221.125 39.2778 221.229 39.0676 221.416 38.7942C222.489 35.3507 224.066 32.0515 225.982 29.5473L226.066 29.484L226.129 29.5675L226.109 29.7143C224.945 31.6488 224.157 33.5605 223.35 35.619C223.226 35.976 223.039 36.2494 222.915 36.6064C223.477 35.7861 224.039 34.9657 224.244 34.0213C224.244 34.0213 224.327 33.958 224.411 33.8947L224.537 34.0617C224.502 35.4036 223.856 36.2873 223.107 37.3812L222.753 37.7813C221.378 39.612 220.905 41.4172 220.538 43.5365C221.219 45.6505 223.331 48.7847 224.488 49.6176C224.552 49.7011 224.698 49.7214 224.762 49.8049L225.119 49.929C232.173 51.9487 239.505 55.2038 246.466 59.5301C247.497 60.1958 248.59 60.9452 249.894 61.7983C249.808 61.3375 249.785 60.9603 249.742 60.7299C249.53 60.102 249.276 59.7678 248.75 59.2463C248.56 58.9956 248.286 58.8083 248.096 58.5577C247.443 57.8691 246.853 57.264 246.18 56.7223C245.316 55.9299 244.265 55.411 243.151 54.8085C242.457 54.4136 241.68 54.082 240.923 53.6036C240.923 53.6036 240.923 53.6036 240.86 53.52C240.86 53.52 240.86 53.52 240.796 53.4365L240.88 53.3732C242.769 53.7831 244.597 54.6336 246.154 55.8209C246.048 55.507 245.815 55.026 244.615 53.9627C244.215 53.6083 243.731 53.3172 243.331 52.9627C242.784 52.5881 242.174 52.1299 241.647 51.6084L241.667 51.4615C241.667 51.4615 241.751 51.3982 241.814 51.4817C246.357 54.3524 246.906 55.2512 247.225 56.193L247.332 56.5069C247.311 56.6538 247.438 56.8209 247.501 56.9044C248.028 57.4259 248.555 57.9474 248.871 58.3652C248.934 58.4487 248.998 58.5323 249.124 58.6994C249.251 58.8664 249.378 59.0335 249.504 59.2006C249.398 58.8867 249.355 58.6563 249.332 58.279C248.927 56.8764 248.228 55.4333 247.235 53.9498C246.073 52.0687 244.452 50.7979 241.994 49.636C241.553 49.5753 241.092 49.6614 240.632 49.7475C240.024 49.8134 239.416 49.8793 238.829 49.7984C237.801 49.6567 236.773 49.515 235.765 49.2265C235.408 49.1025 235.114 49.062 234.821 49.0215L234.757 48.938L234.778 48.7911L234.861 48.7278C235.239 48.705 235.596 48.829 235.973 48.8062C237.441 49.0086 238.91 49.2109 240.439 48.9728L240.586 48.993C238.758 48.1425 236.846 47.3553 235.145 46.6719L234.788 46.5479L234.704 46.6112C231.479 47.2141 227.782 45.8068 225.594 44.3081L225.614 44.1613C225.614 44.1613 225.698 44.098 225.761 44.1815C226.875 44.784 228.22 45.3434 229.815 45.7129C230.823 46.0014 231.871 45.9962 232.899 46.1379C233.046 46.1581 233.192 46.1784 233.276 46.1151C233.129 46.0948 232.982 46.0746 232.919 45.9911C229.979 45.0622 226.913 43.9662 225.161 41.4801L225.181 41.3332L225.328 41.3535C227.855 43.6471 231.152 44.7 234.365 45.8162C234.869 45.9605 235.436 46.1883 235.94 46.3325C234.529 45.1655 232.888 44.0415 231.017 42.9606L230.954 42.8771L230.974 42.7302C230.974 42.7302 231.058 42.6669 231.121 42.7504C233.894 43.8059 236.165 45.2413 237.851 47.1197L238.272 47.3273C238.775 47.4716 239.259 47.7627 239.763 47.907C240.54 48.2385 241.401 48.5068 242.178 48.8384C242.892 49.0865 243.943 49.6054 244.68 50.2307C244.067 49.2484 243.371 48.3294 242.674 47.4104C242.295 46.9091 241.978 46.4914 241.598 45.9901L237.63 40.5799L237.377 40.2458C235.822 39.5826 234.245 38.5421 232.938 37.1649C232.518 36.9574 232.098 36.7498 231.698 36.3954C229.89 35.398 228.145 34.4842 227.17 32.3297C227.107 32.2461 227.19 32.1828 227.274 32.1195C227.274 32.1195 227.421 32.1397 227.568 32.16L228.094 32.6815C228.938 33.6207 229.781 34.56 230.978 35.0991C231.189 35.2029 231.399 35.3067 231.609 35.4105C231.609 35.4105 231.672 35.494 231.756 35.4307C230.533 33.9902 229.581 32.2129 228.965 30.7065C228.965 30.7065 228.985 30.5597 229.069 30.4964L229.216 30.5166L229.575 31.1647C230.484 32.7116 231.477 34.1952 232.72 35.4889C233.837 36.6154 235.058 37.5318 236.362 38.3849C235.306 36.8178 234.607 35.3747 234.201 33.9721C233.946 33.1138 233.837 32.2758 233.791 31.5213C233.791 31.5213 233.728 31.4377 233.664 31.3542C233.558 31.0403 233.388 30.6428 233.282 30.3288C233.132 29.7845 232.983 29.2402 232.834 28.6958C232.747 28.235 232.578 27.8375 232.492 27.3767C232.023 25.8906 231.891 24.6753 231.927 23.3334C231.927 23.3334 231.947 23.1865 232.094 23.2068C232.094 23.2068 232.241 23.227 232.22 23.3739C232.309 24.3588 232.545 25.3639 232.887 26.683C232.993 26.9969 233.099 27.3109 233.206 27.6248C233.312 27.9387 233.355 28.1691 233.462 28.4831C233.588 28.6502 233.568 28.797 233.611 29.0274C233.545 28.4198 233.626 27.8324 233.56 27.2247C233.613 25.2119 233.603 23.1155 233.215 21.0419C233.215 21.0419 233.235 20.8951 233.319 20.8318C233.319 20.8318 233.466 20.852 233.529 20.9355C234.127 23.1129 234.264 25.3764 234.254 27.6196C234.239 28.8147 234.287 30.0932 234.419 31.3085C234.465 32.063 234.657 32.8378 234.87 33.4657C234.976 33.7796 235.062 34.2404 235.232 34.6379C235.25 33.9669 235.331 33.3795 235.475 32.8757C235.515 32.582 235.536 32.4351 235.492 32.2047C235.49 31.6806 235.634 31.1768 235.715 30.5894C235.915 28.5967 236.198 26.5408 235.874 24.5508C235.874 24.5508 235.894 24.404 235.978 24.3407C235.978 24.3407 235.978 24.3407 236.125 24.3609L236.188 24.4445C236.553 26.1408 236.604 27.9435 236.383 30.0829L236.346 30.9007C236.244 31.635 236.227 32.3059 236.126 33.0402L236.085 33.3339C236.029 34.8226 235.928 35.5569 236.121 36.3316C236.377 37.1899 237.073 38.1089 238.466 39.9469C239.035 40.6988 239.795 41.7013 240.681 42.871L242.687 45.6913C242.624 45.6077 242.644 45.4609 242.517 45.2938C241.152 40.5416 240.833 35.2601 241.642 29.3861L241.726 29.3228C241.726 29.3228 241.789 29.4063 241.852 29.4899C241.612 31.7762 241.665 34.103 241.845 36.5969C242.255 34.708 242.875 32.923 243.789 31.1784L243.873 31.1151L243.936 31.1987C241.494 37.521 241.95 40.7263 243.826 47.1951L244.019 47.9698C245.581 50.2053 246.764 51.9395 247.82 53.5066C247.625 52.2078 247.513 50.8456 247.465 49.567C247.359 49.2531 247.232 49.086 247.126 48.7721C246.766 48.124 246.427 47.329 246.171 46.4707C246.128 46.2403 246.085 46.0099 246.042 45.7795C245.76 44.0199 245.626 42.2805 245.806 40.4347C245.806 40.4347 245.889 40.3714 245.973 40.3081C245.973 40.3081 246.12 40.3284 246.099 40.4752L246.142 40.7056C246.277 42.445 246.411 44.1844 246.839 45.9643C246.819 46.1111 246.946 46.2782 246.925 46.4251C247.075 46.9694 247.371 47.534 247.584 48.1618C247.66 46.5262 247.903 44.764 248.272 43.1689C248.282 40.9257 248.459 38.5558 248.699 36.2695L248.74 35.9758C248.76 35.829 248.76 35.829 248.907 35.8492C248.907 35.8492 249.117 35.953 249.033 36.0163L248.998 37.3582C249.003 38.4064 248.945 39.371 248.95 40.4192C249.239 39.4115 249.591 38.4873 250.006 37.6467C250.089 37.5834 250.089 37.5834 250.173 37.5201L250.299 37.6872C248.667 42.4751 248.146 47.3415 248.696 52.5798C249.065 50.9847 249.645 49.4934 250.161 47.9185C250.617 46.7842 250.926 45.6296 251.318 44.4117C251.731 43.047 252.143 41.6823 252.723 40.191C252.723 40.191 252.806 40.1276 252.89 40.0643L253.016 40.2314C252.731 41.7632 252.401 43.0647 252.009 44.2825C251.969 44.5762 251.845 44.9333 251.804 45.227C251.784 45.3738 251.7 45.4371 251.68 45.584C252.845 43.6495 254.219 41.8188 256.055 39.902C256.138 39.8386 256.138 39.8387 256.201 39.9222C256.201 39.9222 256.201 39.9222 256.265 40.0058C256.265 40.0058 256.265 40.0058 256.245 40.1526C255.475 41.3933 254.642 42.5505 253.809 43.7076C253.06 44.8015 252.227 45.9586 251.458 47.1993C250.106 49.4072 249.552 51.7999 248.977 54.3395C249.063 54.8003 249.086 55.1775 249.172 55.6383C249.299 55.8054 249.279 55.9522 249.405 56.1193C249.638 56.6004 249.998 57.2485 250.147 57.7928C250.861 53.7012 254.929 49.6979 257.099 47.5278C257.099 47.5278 257.182 47.4645 257.245 47.5481L257.309 47.6316L257.289 47.7785C255.413 49.989 253.349 52.473 251.896 55.4152C252.772 54.4884 253.858 53.6655 254.694 53.0324C256.01 52.1664 257.453 51.4674 259.421 50.7659L259.484 50.8494C259.484 50.8494 259.464 50.9963 259.38 51.0596C257.476 51.8447 255.699 52.7968 254.175 54.0832C253.507 54.5896 252.965 55.2632 252.443 55.7899C252.005 56.2533 251.651 56.6533 251.213 57.1167C250.861 58.0409 250.593 58.9017 250.388 59.8461C250.497 60.6842 250.522 61.5855 250.421 62.3198C251.642 63.2362 253.072 64.2564 254.439 65.1931C255.807 66.1297 257.111 66.9828 258.331 67.8992C260.856 69.6687 268.731 76.59 268.794 76.6736C268.921 76.8407 269.047 77.0077 269.09 77.2381C269.197 77.5521 269.219 77.9294 269.159 78.3699C269.078 78.9573 268.87 79.3776 268.556 79.484C269.85 78.2407 269.43 78.0331 268.923 77.3648ZM269.923 76.081C269.839 76.1443 269.839 76.1443 269.923 76.081C262.889 69.5748 255.776 64.1802 248.059 59.3755C246.881 58.6895 244.443 57.3807 241.794 55.9682C243.119 56.6745 244.233 57.2769 244.716 57.5681C249.216 60.2083 253.508 63.2689 257.653 66.3092L258.6 67.0383C262.955 70.1825 266.662 73.6862 269.824 77.3393C269.845 77.1925 269.928 77.1292 269.948 76.9824C269.989 76.6886 269.883 76.3747 269.923 76.081Z" fill="#509E2F"/>
<path d="M23.7629 193.19C27.5476 190.088 33.7342 190.045 37.2948 192.789C41.1422 188.45 43.1286 185.045 48.74 181.805C49.4587 181.461 50.2386 181.222 50.9573 180.878C51.0632 180.817 51.1691 180.755 51.2526 180.778C51.5702 180.594 51.9102 180.328 52.2278 180.144C52.7572 179.839 53.3477 179.639 53.9098 179.879C54.2438 179.968 54.5718 180.414 54.8611 180.671C55.4396 181.184 55.8898 181.841 56.1731 182.454C56.4564 183.067 56.5502 183.719 56.5382 184.431C56.5263 185.144 56.2801 186.063 55.5614 186.407C55.1603 186.568 54.7428 186.456 54.364 186.534C53.8794 186.672 53.3948 186.811 52.9102 186.95C52.2138 187.211 45.3112 189.925 47.604 195.73C53.4075 194.779 59.0168 197.893 61.3156 203.342C61.833 203.749 61.4826 203.387 62.7679 204.268C67.3304 207.281 67.9161 211.107 67.0911 216.524C65.6395 224.279 56.1352 242.048 54.3053 244.869C49.4794 252.525 42.9955 259.022 34.6024 255.609C29.6666 257.33 24.6403 255.714 21.727 251.891C18.381 251.352 14.7801 249.761 12.3334 246.868C11.327 245.614 8.95507 240.772 9.08257 231.946C9.31811 198.001 15.9838 193.164 23.7629 193.19ZM25.2943 193.153C27.7278 193.089 30.7561 193.811 32.7258 195.145C33.701 194.511 35.3667 193.973 36.2808 193.233C33.6551 191.008 28.4034 191.57 25.2943 193.153ZM54.543 185.866C55.0053 185.811 55.3676 185.46 55.4795 185.043C55.7376 183.411 55.1323 181.996 53.9142 180.864C53.6249 180.608 53.1239 180.474 52.8063 180.657C53.0956 180.914 53.279 181.231 53.5458 181.571C54.0349 182.418 54.3121 183.388 54.1495 184.328C53.8499 183.443 53.3385 182.679 52.7823 182.083C52.5155 181.743 52.2262 181.486 51.8535 181.207C48.9725 182.941 46.7791 182.443 42.1666 188.635C36.7398 195.862 36.4522 194.264 31.8161 196.87C33.0134 196.743 33.8708 196.883 34.7893 197.129C40.3783 193.973 42.3456 187.967 46.837 185.233C47.2605 184.988 47.5781 184.805 47.7899 184.683C48.0016 184.56 48.1075 184.499 48.1075 184.499C48.1075 184.499 48.0016 184.56 47.7899 184.683C47.5781 184.805 47.2605 184.988 46.9205 185.255C42.9688 188.313 41.4474 193.991 36.2088 197.51C37.0826 197.923 38.0786 198.548 39.1521 199.551C40.9372 196.897 40.6375 196.012 43.6336 191.176C41.3667 196.296 41.4262 197.744 39.9811 200.131C40.2927 200.304 40.5209 200.455 40.749 200.606C41.9092 198.948 42.2836 197.885 42.8369 196.153C42.7071 197.64 42.622 198.96 41.4557 200.974C44.1605 202.236 45.2192 201.624 47.3575 201.66C45.5237 198.484 45.415 196.218 45.3539 196.112C45.9428 197.254 46.3587 198.708 48.6547 201.829C49.2616 201.902 49.8461 202.059 50.6588 202.366C38.9636 189.567 52.9893 185.986 54.543 185.866ZM47.9037 196.616C48.4254 198.009 49.1426 199.006 49.9432 200.026C52.9672 199.763 56.9752 200.837 60.0915 202.567C56.1778 197.133 52.7215 195.67 47.9037 196.616ZM58.3829 234.327C64.6064 222.123 71.7439 209.179 59.4726 203.206C56.6232 201.816 54.0735 201.312 50.9496 201.281C51.4222 201.855 52.0171 202.641 52.4674 203.298C58.9624 206.112 58.3623 214.364 57.0302 220.003C52.1943 240.723 38.1797 253.614 36.0682 254.481C48.4754 258.611 56.8424 237.405 58.3829 234.327ZM22.4249 250.288C36.7393 270.68 60.5792 218.448 56.1633 209.211C54.1805 204.921 50.268 203.156 45.5353 202.783C42.2935 203.525 39.1161 201.69 36.9751 199.326C19.4181 189.699 12.8265 235.008 22.4249 250.288ZM10.3662 234.169C11.0665 239.906 11.0405 247.685 20.4761 250.213C13.6135 238.082 17.2985 215.98 20.092 208.226C21.8072 203.495 25.4385 198.293 30.2176 197.157C30.7917 196.685 31.3658 196.212 31.9175 195.823C27.4533 194.448 23.2783 193.329 19.2387 195.379C9.95613 199.962 9.83128 229.82 10.3662 234.169Z" fill="#509E2F"/>
<path d="M24.7645 249.572C27.7389 253.502 31.1073 253.957 36.7633 250.55C30.3749 256.356 26.2643 252.659 25.6022 252.124C19.0537 247.505 18.7789 235.171 20.047 227.098C20.0766 230.328 20.5943 244.428 24.7645 249.572Z" fill="#509E2F"/>
<path d="M27.8492 203.324C26.522 204.938 25.1932 207.893 24.4057 209.83C22.4624 214.41 21.4152 219.32 20.7855 224.342C20.0049 215.9 23.647 206.315 27.1261 202.683C27.6167 202.188 28.085 201.777 28.6367 201.387C30.7989 199.998 32.9372 200.034 34.2448 200.832C32.9923 200.496 31.7726 200.706 30.6751 201.128C29.4717 201.611 28.6187 202.457 27.8492 203.324Z" fill="#509E2F"/>
<path d="M15.3336 229.325C15.2753 231.547 15.3228 233.708 15.4538 235.891C15.5194 236.982 15.6684 238.096 15.8398 239.126C15.9888 240.24 16.1602 241.271 16.4151 242.323C16.9248 244.429 17.5181 246.557 18.4901 248.607C14.7598 243.491 13.8226 235.632 14.5598 229.207C14.8075 226.947 15.2222 224.731 15.9485 222.688C15.6173 224.926 15.392 227.103 15.3336 229.325Z" fill="#509E2F"/>
<path d="M56.1244 227.726C53.5902 237.518 47.3727 249.366 38.2184 253.804C46.9017 247.449 51.7248 237.465 56.1244 227.726Z" fill="#509E2F"/>
<path d="M27.9393 249.081C28.5178 249.594 29.141 249.94 29.8925 250.141C30.644 250.342 31.4627 250.293 32.3037 250.16C31.5849 250.505 30.7215 250.721 29.8418 250.664C28.962 250.608 28.0883 250.194 27.4039 249.743C23.821 247.082 22.4543 239.825 23.4447 235.794C23.5682 239.676 25.0691 246.432 27.9393 249.081Z" fill="#509E2F"/>
<path d="M37.8233 202.507C41.0515 203.819 41.5301 204.037 45.5889 204.587C43.1761 205.91 39.2516 204.858 37.8233 202.507Z" fill="#509E2F"/>
<path d="M29.4116 205.175C29.3892 205.258 24.9001 215.332 24.9001 215.332C24.8466 213.528 25.3225 211.418 26.1263 209.754C26.5394 208.88 27.036 208.029 27.5103 207.261C28.068 206.515 28.7093 205.792 29.4116 205.175Z" fill="#509E2F"/>
<path d="M15.7361 246.527C13.3773 244.642 12.0849 240.447 13.1409 237.508C13.4733 238.94 13.0422 240.883 15.7361 246.527Z" fill="#509E2F"/>
<path d="M48.9297 246.561C47.6456 249.349 44.8465 252.447 41.9104 253.719C42.3175 253.202 47.8873 247.445 48.9297 246.561Z" fill="#509E2F"/>
<path d="M52.9252 202.257C55.3974 202.383 58.0171 204.964 58.0363 207.565C56.441 205.168 55.5568 204.126 52.9252 202.257Z" fill="#509E2F"/>
<path d="M29.5557 196.622C26.1022 197.486 23.4329 199.098 20.9379 204.068C19.2243 207.457 18.14 210.836 17.5119 214.516C17.46 211.369 18.1268 207.879 19.7793 204.384C21.232 200.298 24.9064 196.271 29.5557 196.622Z" fill="#509E2F"/>
</svg>