<svg xmlns="http://www.w3.org/2000/svg" enable-background="new 0 0 32 32" viewBox="0 0 32 32" id="next"><path d="M16,0.5C7.45001,0.5,0.5,7.45001,0.5,16S7.45001,31.5,16,31.5S31.5,24.54999,31.5,16S24.54999,0.5,16,0.5z M23.06,22.69c0,0.82996-0.67999,1.5-1.5,1.5c-0.83002,0-1.5-0.67004-1.5-1.5v-3.89001L12.31,23.94c-0.25,0.15997-0.53998,0.25-0.83002,0.25c-0.23999,0-0.48999-0.06-0.70996-0.17999C10.28003,23.75,9.97998,23.23999,9.97998,22.69V9.31c0-0.54999,0.30005-1.06,0.79004-1.32001S11.84998,7.76001,12.31,8.06l7.75,5.14001V9.31c0-0.83002,0.66998-1.5,1.5-1.5c0.82001,0,1.5,0.66998,1.5,1.5V22.69z" fill="#009246" class="color000000 svgShape"></path><polygon points="12.98 19.89 18.84 16 12.98 12.11" fill="#009246" class="color000000 svgShape"></polygon></svg>