<svg xmlns="http://www.w3.org/2000/svg" width="48" height="48" viewBox="0 0 48 48" fill="none">
<path d="M25.7692 20.0239C25.7692 20.3868 25.9269 20.9213 27.2906 21.3706C27.8698 21.5614 29.6322 22.1421 29.6322 23.8421C29.6322 25.0175 28.8079 26.0056 27.7008 26.2726V26.5266C27.7008 26.8541 27.4322 27.1194 27.101 27.1194C26.7697 27.1194 26.5012 26.8541 26.5012 26.5266V26.2726C25.394 26.0056 24.5696 25.0175 24.5696 23.8421C24.5696 23.5146 24.8382 23.2493 25.1694 23.2493C25.5007 23.2493 25.7692 23.5146 25.7692 23.8421C25.7692 24.568 26.3666 25.1584 27.101 25.1584C27.8353 25.1584 28.4326 24.5679 28.4326 23.8421C28.4326 23.4241 28.2519 22.9371 26.9113 22.4955C25.3574 21.9835 24.5696 21.152 24.5696 20.0239C24.5696 18.8487 25.394 17.8606 26.5012 17.5935V17.3396C26.5012 17.0121 26.7697 16.7467 27.101 16.7467C27.4322 16.7467 27.7008 17.0121 27.7008 17.3396V17.5935C28.8079 17.8606 29.6322 18.8487 29.6322 20.0239C29.6322 20.3514 29.3637 20.6168 29.0324 20.6168C28.7012 20.6168 28.4326 20.3514 28.4326 20.0239C28.4326 19.2981 27.8352 18.7077 27.101 18.7077C26.3667 18.7077 25.7692 19.2981 25.7692 20.0239ZM48 11.5929V32.2732C48 32.6007 47.7314 32.8661 47.4002 32.8661H46.7981V36.2574C46.7981 36.4248 46.7264 36.5845 46.6009 36.6969C46.4901 36.796 46.3464 36.8503 46.1983 36.8503C46.1786 36.8503 46.1588 36.8493 46.139 36.8473L44.3943 36.6761V40.4072C44.3943 40.5863 44.3123 40.7558 44.1713 40.8684C44.0637 40.9543 43.9303 41 43.7945 41C43.7524 41 43.71 40.9956 43.6681 40.9867L5.48017 32.8542L5.47713 32.8536L5.47353 32.8528C5.46449 32.8509 5.45585 32.8482 5.44698 32.8459C5.44018 32.8442 5.43322 32.8427 5.4265 32.8407C5.41827 32.8382 5.41027 32.8352 5.40211 32.8325C5.39915 32.8314 5.39611 32.8304 5.39315 32.8293C5.38716 32.8272 5.38108 32.8254 5.37516 32.823L5.37092 32.8212C5.36364 32.8182 5.35653 32.8148 5.34941 32.8115C5.34189 32.8081 5.33429 32.805 5.32694 32.8013C5.3251 32.8004 5.32334 32.7993 5.3215 32.7982C5.3147 32.7947 5.30734 32.7905 5.3007 32.7867C5.29407 32.7829 5.28735 32.7794 5.28095 32.7754C5.27791 32.7735 5.27503 32.7714 5.27199 32.7694C5.26616 32.7657 5.26048 32.7616 5.2548 32.7578C5.24912 32.7538 5.24328 32.7499 5.23776 32.7458C5.23393 32.7429 5.23025 32.7398 5.22649 32.7368C5.22145 32.7329 5.21649 32.7288 5.21161 32.7247C5.20689 32.7207 5.2021 32.7167 5.19746 32.7126C5.19298 32.7087 5.18874 32.7044 5.18442 32.7003C5.1801 32.6962 5.17578 32.6922 5.17163 32.6881C5.16787 32.6842 5.16419 32.6803 5.16051 32.6764C5.15563 32.6712 5.15091 32.6658 5.14619 32.6603C5.14251 32.6561 5.13868 32.6522 5.13516 32.6479C5.13228 32.6444 5.12964 32.6408 5.12684 32.6372C5.12204 32.6311 5.11748 32.6249 5.11292 32.6186C5.10981 32.6143 5.10637 32.6103 5.10333 32.6058C5.10093 32.6023 5.09885 32.5986 5.09645 32.5949C5.09213 32.5884 5.08805 32.5817 5.08397 32.5749C5.08109 32.5701 5.07798 32.5654 5.07526 32.5604C5.07278 32.5559 5.07046 32.5514 5.06806 32.5469C5.06494 32.541 5.06198 32.5351 5.0591 32.5291C5.05638 32.5236 5.05374 32.5179 5.05118 32.5123C5.04878 32.507 5.04647 32.5017 5.04423 32.4963C5.04215 32.4913 5.04023 32.4863 5.03831 32.4813C5.03583 32.4747 5.03359 32.4681 5.03135 32.4615C5.02927 32.4555 5.02719 32.4496 5.02535 32.4434C5.02415 32.4394 5.02303 32.4355 5.02191 32.4315C5.01967 32.4237 5.01791 32.4157 5.01607 32.4077C5.01456 32.4013 5.0128 32.395 5.01152 32.3885C5.01096 32.3858 5.01048 32.3829 5.00992 32.3802C5.00808 32.3701 5.0068 32.3598 5.00552 32.3496C5.00472 32.3436 5.0036 32.3377 5.00296 32.3316L5.00256 32.3273C5.00096 32.3095 5 32.2915 5 32.2732V11.5929C5 11.2654 5.26855 11 5.59981 11H47.4002C47.7314 11 48 11.2654 48 11.5929Z" fill="#509E2F"/>
<path d="M43 7.59285V28.2732C43 28.6007 42.7314 28.8661 42.4002 28.8661H41.7981V32.2574C41.7981 32.4248 41.7264 32.5845 41.6009 32.6969C41.4901 32.796 41.3464 32.8503 41.1983 32.8503C41.1786 32.8503 41.1588 32.8493 41.139 32.8473L39.3943 32.6761V36.4072C39.3943 36.5863 39.3123 36.7558 39.1713 36.8684C39.0636 36.9543 38.9303 37 38.7945 37C38.7524 37 38.71 36.9956 38.6681 36.9867L0.480167 28.8542L0.477128 28.8536L0.473529 28.8528C0.464492 28.8509 0.455855 28.8482 0.446978 28.8459C0.44018 28.8442 0.433222 28.8427 0.426504 28.8407C0.418267 28.8382 0.410269 28.8352 0.402112 28.8325C0.399153 28.8314 0.396114 28.8304 0.393155 28.8293C0.387157 28.8272 0.381079 28.8254 0.375161 28.823L0.370922 28.8212C0.363644 28.8182 0.356527 28.8148 0.349409 28.8115C0.341891 28.8081 0.334294 28.805 0.326936 28.8013C0.325097 28.8004 0.323337 28.7993 0.321498 28.7982C0.3147 28.7947 0.307342 28.7905 0.300704 28.7867C0.294066 28.7829 0.287349 28.7794 0.280951 28.7754C0.277912 28.7735 0.275032 28.7714 0.271993 28.7694C0.266155 28.7657 0.260477 28.7616 0.254799 28.7578C0.249121 28.7538 0.243283 28.7499 0.237764 28.7458C0.233926 28.7429 0.230247 28.7398 0.226488 28.7368C0.22145 28.7329 0.216491 28.7288 0.211613 28.7247C0.206894 28.7207 0.202096 28.7167 0.197457 28.7126C0.192979 28.7087 0.18874 28.7044 0.184421 28.7003C0.180103 28.6962 0.175784 28.6922 0.171625 28.6881C0.167867 28.6842 0.164188 28.6803 0.160509 28.6764C0.15563 28.6712 0.150912 28.6658 0.146193 28.6603C0.142515 28.6561 0.138676 28.6522 0.135157 28.6479C0.132278 28.6444 0.129639 28.6408 0.12684 28.6372C0.122041 28.6311 0.117483 28.6249 0.112924 28.6186C0.109805 28.6143 0.106366 28.6103 0.103327 28.6058C0.100928 28.6023 0.0988485 28.5986 0.0964493 28.5949C0.0921307 28.5884 0.088052 28.5817 0.0839733 28.5749C0.0810942 28.5701 0.0779752 28.5654 0.075256 28.5604C0.0727768 28.5559 0.0704576 28.5514 0.0680583 28.5469C0.0649393 28.541 0.0619803 28.5351 0.0591012 28.5291C0.0563821 28.5236 0.0537429 28.5179 0.0511837 28.5123C0.0487845 28.507 0.0464652 28.5017 0.0442259 28.4963C0.0421466 28.4913 0.0402272 28.4863 0.0383078 28.4813C0.0358286 28.4747 0.0335893 28.4681 0.03135 28.4615C0.0292707 28.4555 0.0271913 28.4496 0.0253519 28.4434C0.0241523 28.4394 0.0230327 28.4355 0.021913 28.4315C0.0196737 28.4237 0.0179143 28.4157 0.0160749 28.4077C0.0145554 28.4013 0.0127959 28.395 0.0115163 28.3885C0.0109565 28.3858 0.0104767 28.3829 0.00991684 28.3802C0.00807743 28.3701 0.00679784 28.3598 0.00551824 28.3496C0.0047185 28.3436 0.00359885 28.3377 0.00295906 28.3316L0.00255919 28.3273C0.000959695 28.3095 0 28.2915 0 28.2732V7.59285C0 7.26536 0.268555 7 0.599809 7H42.4002C42.7314 7 43 7.26536 43 7.59285ZM36.1759 27.6804C36.46 24.7445 38.83 22.4019 41.8004 22.1211V13.7448C38.83 13.4641 36.46 11.1215 36.1759 8.18563H6.82407C6.54 11.1216 4.16995 13.4641 1.19962 13.7448V22.1211C4.16995 22.4019 6.54 24.7445 6.82407 27.6804H36.1759ZM5.61701 27.6804C5.3427 25.3991 3.50768 23.5853 1.19962 23.3142V27.6804H5.61701ZM5.61701 8.18571H1.19962V12.5519C3.50768 12.2807 5.3427 10.467 5.61701 8.18571ZM41.8004 8.18571H37.383C37.6573 10.467 39.4923 12.2807 41.8004 12.5519V8.18571ZM38.1946 32.5584L11.0695 29.8964L38.1946 35.673L38.1946 32.5584ZM40.5984 28.8661H12.7114L40.5984 31.6028V28.8661ZM41.8004 27.6804V23.3142C39.4923 23.5853 37.6573 25.3991 37.383 27.6804H41.1967L41.1983 27.6803L41.1998 27.6804H41.8004ZM27.7671 13.2786C27.4961 13.467 27.4309 13.8368 27.6214 14.1046C28.4212 15.2292 28.844 16.553 28.844 17.933C28.844 21.608 25.8191 24.5978 22.101 24.5978C18.3828 24.5978 15.3578 21.608 15.3578 17.933C15.3578 14.258 18.3828 11.2681 22.101 11.2681C23.4972 11.2681 24.8367 11.6861 25.9745 12.4768C26.2456 12.6653 26.6197 12.6008 26.8102 12.3328C27.0007 12.065 26.9355 11.6952 26.6646 11.5069C25.3236 10.5751 23.7456 10.0824 22.101 10.0824C17.7213 10.0824 14.1582 13.6042 14.1582 17.933C14.1582 22.2618 17.7213 25.7835 22.101 25.7835C26.4806 25.7835 30.0436 22.2618 30.0436 17.933C30.0436 16.3075 29.5454 14.748 28.6027 13.4226C28.4123 13.1548 28.0381 13.0905 27.7671 13.2786Z" fill="#212721"/>
<path d="M22.069 21C21.4785 21 21.0357 20.8529 20.7405 20.5586C20.4501 20.2643 20.3049 19.8583 20.3049 19.3406C20.3049 19.1771 20.3218 19.03 20.3557 18.8992H20V18.2943H20.6316C20.7187 18.1798 20.8227 18.0736 20.9437 17.9755C21.0647 17.8774 21.2002 17.7875 21.3503 17.7057H20V17.1008H22.4247C22.5505 16.97 22.6134 16.7984 22.6134 16.5858C22.6134 16.4114 22.5554 16.2752 22.4392 16.1771C22.3279 16.079 22.1658 16.03 21.9528 16.03C21.7592 16.03 21.5632 16.0599 21.3648 16.1199C21.1712 16.1798 20.9534 16.2643 20.7114 16.3733L20.3848 15.4087C20.6364 15.2834 20.8978 15.1853 21.1688 15.1144C21.4446 15.0381 21.735 15 22.0399 15C22.5433 15 22.9425 15.139 23.2377 15.4169C23.5378 15.6894 23.6878 16.0872 23.6878 16.6104C23.6878 16.7793 23.6685 16.9428 23.6298 17.1008H24V17.7057H23.3249C23.2184 17.842 23.0926 17.9564 22.9474 18.049C22.8022 18.1362 22.6521 18.218 22.4973 18.2943H24V18.8992H21.5172C21.4253 19.0191 21.3793 19.1662 21.3793 19.3406C21.3793 19.5422 21.4422 19.7003 21.5681 19.8147C21.6939 19.9237 21.8826 19.9782 22.1343 19.9782C22.3956 19.9782 22.6521 19.9455 22.9038 19.8801C23.1555 19.8093 23.4071 19.7166 23.6588 19.6022V20.6322C23.4507 20.7466 23.2111 20.8365 22.9401 20.9019C22.6691 20.9673 22.3787 21 22.069 21Z" fill="#212721"/>
</svg>