<svg xmlns="http://www.w3.org/2000/svg" width="48" height="48" viewBox="0 0 48 48" fill="none">
<path d="M33.2001 12.2666H33.9333C35.8082 12.2666 37.3335 13.7919 37.3335 15.6667V44.6C37.3335 46.4747 35.8082 48 33.9334 48H17.4001C15.5253 48 14 46.4748 14 44.6V15.6667C14 13.7919 15.5253 12.2666 17.4001 12.2666H18.1333V4.64451C18.1333 4.38386 18.2904 4.14882 18.5312 4.04905C18.772 3.94945 19.0493 4.00436 19.2336 4.18878L20.1556 5.11081L21.0777 4.18878C21.3293 3.93707 21.7374 3.93707 21.9891 4.18878L22.9112 5.11081L23.8333 4.18878C24.0849 3.93707 24.493 3.93707 24.7447 4.18878L25.6667 5.11081L26.5888 4.18878C26.8404 3.93707 27.2485 3.93707 27.5002 4.18878L28.4223 5.11081L29.3443 4.18878C29.596 3.93707 30.0041 3.93707 30.2558 4.18878L31.1778 5.11081L32.0999 4.18878C32.2842 4.00436 32.5615 3.94945 32.8022 4.04905C33.0431 4.14882 33.2001 4.38378 33.2001 4.64451V12.2666Z" fill="#509E2F"/>
<path d="M29.9333 8.26659H29.2001V0.644511C29.2001 0.383776 29.0431 0.148823 28.8022 0.0490489C28.5615 -0.0505529 28.2842 0.00436133 28.0999 0.188784L27.1778 1.11081L26.2558 0.188784C26.0041 -0.0629279 25.596 -0.0629279 25.3443 0.188784L24.4223 1.11081L23.5002 0.188784C23.2485 -0.0629279 22.8404 -0.0629279 22.5888 0.188784L21.6667 1.11081L20.7447 0.188784C20.493 -0.0629279 20.0849 -0.0629279 19.8333 0.188784L18.9112 1.11081L17.9891 0.188784C17.7374 -0.0629279 17.3293 -0.0629279 17.0777 0.188784L16.1556 1.11081L15.2336 0.188784C15.0493 0.00436133 14.772 -0.0505529 14.5312 0.0490489C14.2904 0.148823 14.1333 0.383862 14.1333 0.644511V8.26659C14.1333 8.62254 14.4219 8.91112 14.7779 8.91112C15.1338 8.91112 15.4224 8.62254 15.4224 8.26659V2.2005L15.6999 2.47799C15.9516 2.7297 16.3597 2.7297 16.6114 2.47799L17.5334 1.55597L18.4554 2.47799C18.7071 2.7297 19.1152 2.7297 19.3669 2.47799L20.2889 1.55597L21.2109 2.47799C21.4626 2.7297 21.8707 2.7297 22.1224 2.47799L23.0444 1.55597L23.9664 2.47799C24.2181 2.7297 24.6263 2.7297 24.8779 2.47799L25.7999 1.55597L26.7219 2.47799C26.9736 2.7297 27.3818 2.7297 27.6334 2.47799L27.9109 2.2005V8.26659H13.4001C11.5253 8.26659 10 9.79189 10 11.6667V40.6C10 42.4748 11.5253 44 13.4001 44H29.9334C31.8082 44 33.3335 42.4747 33.3335 40.6V11.6667C33.3335 9.79189 31.8082 8.26659 29.9333 8.26659ZM29.9333 42.711H13.4001C12.2361 42.711 11.2891 41.764 11.2891 40.6V24.7112H26.4887C26.8446 24.7112 27.1332 24.4226 27.1332 24.0667C27.1332 23.7107 26.8446 23.4221 26.4887 23.4221H11.2891V11.6667C11.2891 10.5027 12.2361 9.55565 13.4001 9.55565H29.9334C31.0974 9.55565 32.0445 10.5027 32.0445 11.6667V23.4221H25.7911C25.4351 23.4221 25.1465 23.7107 25.1465 24.0667C25.1465 24.4226 25.4351 24.7112 25.7911 24.7112H32.0445V40.6C32.0444 41.764 31.0974 42.711 29.9333 42.711Z" fill="#212721"/>
<path d="M29.1996 19.9333V13.0444C29.1996 12.6885 28.911 12.3999 28.555 12.3999H14.7773C14.4214 12.3999 14.1328 12.6885 14.1328 13.0444V19.9333C14.1328 20.2892 14.4214 20.5778 14.7773 20.5778H28.555C28.911 20.5778 29.1996 20.2893 29.1996 19.9333ZM27.9105 19.2888H15.4219V13.689H27.9105V19.2888Z" fill="#212721"/>
<path d="M22.3551 26.1777H20.9774C19.8622 26.1777 18.9551 27.085 18.9551 28.2C18.9551 29.3151 19.8623 30.2223 20.9774 30.2223H22.3551C23.4702 30.2223 24.3774 29.3151 24.3774 28.2C24.3774 27.085 23.4702 26.1777 22.3551 26.1777ZM22.3551 28.9332H20.9774C20.573 28.9332 20.2441 28.6043 20.2441 28.2C20.2441 27.7958 20.5731 27.4668 20.9774 27.4668H22.3551C22.7595 27.4668 23.0883 27.7958 23.0883 28.2C23.0883 28.6043 22.7595 28.9332 22.3551 28.9332Z" fill="#212721"/>
<path d="M22.3551 31.6887H20.9774C19.8622 31.6887 18.9551 32.596 18.9551 33.7111C18.9551 34.8262 19.8623 35.7334 20.9774 35.7334H22.3551C23.4702 35.7334 24.3774 34.8261 24.3774 33.7111C24.3774 32.596 23.4702 31.6887 22.3551 31.6887ZM22.3551 34.4443H20.9774C20.573 34.4443 20.2441 34.1153 20.2441 33.7111C20.2441 33.3068 20.5731 32.9778 20.9774 32.9778H22.3551C22.7595 32.9778 23.0883 33.3068 23.0883 33.7111C23.0883 34.1154 22.7595 34.4443 22.3551 34.4443Z" fill="#212721"/>
<path d="M22.3551 37.2H20.9774C19.8622 37.2 18.9551 38.1072 18.9551 39.2222C18.9551 40.3373 19.8623 41.2445 20.9774 41.2445H22.3551C23.4702 41.2445 24.3774 40.3373 24.3774 39.2222C24.3774 38.1072 23.4702 37.2 22.3551 37.2ZM22.3551 39.9555H20.9774C20.573 39.9555 20.2441 39.6265 20.2441 39.2222C20.2441 38.818 20.5731 38.489 20.9774 38.489H22.3551C22.7595 38.489 23.0883 38.818 23.0883 39.2222C23.0883 39.6265 22.7595 39.9555 22.3551 39.9555Z" fill="#212721"/>
<path d="M28.5563 26.1777H27.1785C26.0634 26.1777 25.1562 27.085 25.1562 28.2C25.1562 29.3151 26.0635 30.2223 27.1785 30.2223H28.5563C29.6714 30.2223 30.5786 29.3151 30.5786 28.2C30.5786 27.085 29.6714 26.1777 28.5563 26.1777ZM28.5563 28.9332H27.1785C26.7742 28.9332 26.4453 28.6043 26.4453 28.2C26.4453 27.7958 26.7743 27.4668 27.1785 27.4668H28.5563C28.9606 27.4668 29.2895 27.7958 29.2895 28.2C29.2895 28.6043 28.9606 28.9332 28.5563 28.9332Z" fill="#212721"/>
<path d="M28.5563 31.6887H27.1785C26.0634 31.6887 25.1562 32.596 25.1562 33.7111C25.1562 34.8262 26.0635 35.7334 27.1785 35.7334H28.5563C29.6714 35.7334 30.5786 34.8261 30.5786 33.7111C30.5786 32.596 29.6714 31.6887 28.5563 31.6887ZM28.5563 34.4443H27.1785C26.7742 34.4443 26.4453 34.1153 26.4453 33.7111C26.4453 33.3068 26.7743 32.9778 27.1785 32.9778H28.5563C28.9606 32.9778 29.2895 33.3068 29.2895 33.7111C29.2895 34.1154 28.9606 34.4443 28.5563 34.4443Z" fill="#212721"/>
<path d="M28.5563 37.2H27.1785C26.0634 37.2 25.1562 38.1072 25.1562 39.2222C25.1562 40.3373 26.0635 41.2445 27.1785 41.2445H28.5563C29.6714 41.2445 30.5786 40.3373 30.5786 39.2222C30.5786 38.1072 29.6714 37.2 28.5563 37.2ZM28.5563 39.9555H27.1785C26.7742 39.9555 26.4453 39.6265 26.4453 39.2222C26.4453 38.818 26.7743 38.489 27.1785 38.489H28.5563C28.9606 38.489 29.2895 38.818 29.2895 39.2222C29.2895 39.6265 28.9606 39.9555 28.5563 39.9555Z" fill="#212721"/>
<path d="M16.1559 26.1777H14.7781C13.663 26.1777 12.7559 27.085 12.7559 28.2C12.7559 29.3151 13.6631 30.2223 14.7781 30.2223H16.1559C17.271 30.2223 18.1782 29.3151 18.1782 28.2C18.1782 27.085 17.271 26.1777 16.1559 26.1777ZM16.1559 28.9332H14.7781C14.3738 28.9332 14.0449 28.6043 14.0449 28.2C14.0449 27.7958 14.3739 27.4668 14.7781 27.4668H16.1559C16.5602 27.4668 16.8891 27.7958 16.8891 28.2C16.8891 28.6043 16.5602 28.9332 16.1559 28.9332Z" fill="#212721"/>
<path d="M16.1559 31.6887H14.7781C13.663 31.6887 12.7559 32.596 12.7559 33.7111C12.7559 34.8262 13.6631 35.7334 14.7781 35.7334H16.1559C17.271 35.7334 18.1782 34.8261 18.1782 33.7111C18.1782 32.596 17.271 31.6887 16.1559 31.6887ZM16.1559 34.4443H14.7781C14.3738 34.4443 14.0449 34.1153 14.0449 33.7111C14.0449 33.3068 14.3739 32.9778 14.7781 32.9778H16.1559C16.5602 32.9778 16.8891 33.3068 16.8891 33.7111C16.8891 34.1154 16.5602 34.4443 16.1559 34.4443Z" fill="#212721"/>
<path d="M16.1559 37.2H14.7781C13.663 37.2 12.7559 38.1072 12.7559 39.2222C12.7559 40.3373 13.6631 41.2445 14.7781 41.2445H16.1559C17.271 41.2445 18.1782 40.3373 18.1782 39.2222C18.1782 38.1072 17.271 37.2 16.1559 37.2ZM16.1559 39.9555H14.7781C14.3738 39.9555 14.0449 39.6265 14.0449 39.2222C14.0449 38.818 14.3739 38.489 14.7781 38.489H16.1559C16.5602 38.489 16.8891 38.818 16.8891 39.2222C16.8891 39.6265 16.5602 39.9555 16.1559 39.9555Z" fill="#212721"/>
<path d="M25.1096 6.80017C25.4655 6.80017 25.7541 6.5116 25.7541 6.15564C25.7541 5.79969 25.4655 5.51111 25.1096 5.51111H18.2207C17.8648 5.51111 17.5762 5.79969 17.5762 6.15564C17.5762 6.5116 17.8648 6.80017 18.2207 6.80017H25.1096Z" fill="#212721"/>
</svg>